<svg width="251" height="320" viewBox="0 0 251 320" fill="none" xmlns="http://www.w3.org/2000/svg">
<g clip-path="url(#clip0_0_2342)">
<path d="M137.75 60.9842C105.73 60.9842 52.6963 73.9509 52.6963 113.399C52.6963 147.002 97.7248 176.588 139.951 176.588C182.178 176.588 225.005 152.847 225.005 116.869C225.005 78.2675 181.177 60.9842 137.75 60.9842Z" fill="url(#paint0_linear_0_2342)"/>
</g>
<g clip-path="url(#clip1_0_2342)">
<path d="M227.626 140.67H168.596C165.777 135.923 172.913 130.939 178.376 134.262C176.525 125.165 192.032 121.13 195.908 129.357C200.578 119.944 218.639 121.842 216.701 134.816C222.251 131.731 229.828 135.528 227.626 140.67Z" fill="white"/>
</g>
<g clip-path="url(#clip2_0_2342)">
<path d="M222.235 252.953H26.8809L32.3671 245.008L40.7211 243.413L47.3879 228.587L74.0523 220.07L80.8891 203.825L98.6935 195.742L98.8277 192.167L114.542 171.932L128.567 163.276L129.701 151.884L133.377 114.921L145.951 97.1298L151.351 96.1418L162.49 76.8303L176.919 127.77L189.24 135.38L195.882 174.135L197.004 180.687L207.553 189.659L222.235 252.953Z" fill="url(#paint1_linear_0_2342)"/>
<path d="M128.567 163.276L127.941 170.269C122.744 173.084 124.061 180.413 120.465 183.577C116.922 186.694 112.839 185.083 109.58 189.279C105.445 194.601 107.555 205.093 98.9474 207.83C91.6739 210.142 85.0232 203.115 80.8892 203.825L98.6935 195.742L98.8278 192.167L114.542 171.932L128.567 163.276ZM195.882 174.135C193.967 176.164 188.354 176.429 184.22 174.072C179.449 171.353 175.274 159.816 166.946 158.273C158.398 156.69 153.376 165.367 145.781 162.315C139.675 159.861 138.946 148.947 129.701 151.884L133.377 114.921L145.951 97.1296L151.351 96.1416L162.49 76.8303L176.919 127.77L189.24 135.379L195.881 174.135L195.882 174.135Z" fill="white"/>
<path d="M222.236 253.255H26.8812C26.8216 253.254 26.7631 253.24 26.7117 253.213C26.6604 253.186 26.618 253.146 26.5891 253.099C26.5601 253.052 26.5456 252.999 26.547 252.946C26.5484 252.892 26.5657 252.84 26.597 252.794L32.0833 244.849C32.107 244.815 32.1383 244.785 32.1752 244.762C32.2121 244.738 32.2538 244.722 32.2979 244.714L40.4779 243.151L47.0781 228.473C47.0959 228.434 47.1227 228.398 47.1569 228.369C47.1911 228.339 47.2318 228.317 47.2763 228.302L73.7948 219.833L80.5765 203.718C80.6061 203.648 80.664 203.59 80.7387 203.556L98.3659 195.553L98.4935 192.157C98.4957 192.098 98.5166 192.042 98.5537 191.994L114.268 171.759C114.291 171.729 114.32 171.704 114.353 171.683L128.248 163.107L129.367 151.857L133.044 114.894C133.049 114.846 133.066 114.8 133.095 114.759L145.669 96.9676C145.693 96.9335 145.724 96.9041 145.761 96.8811C145.798 96.8582 145.84 96.8422 145.884 96.8341L151.128 95.8749L162.194 76.6913C162.225 76.6372 162.274 76.5929 162.334 76.5642C162.394 76.5356 162.462 76.5239 162.529 76.5308C162.596 76.5379 162.66 76.5631 162.711 76.6033C162.762 76.6435 162.798 76.6967 162.815 76.7558L177.213 127.585L189.43 135.131C189.506 135.178 189.557 135.251 189.571 135.334L197.318 180.539L207.783 189.44C207.833 189.482 207.867 189.537 207.881 189.597L222.563 252.891C222.573 252.935 222.573 252.981 222.561 253.024C222.549 253.068 222.527 253.108 222.495 253.143C222.464 253.178 222.424 253.206 222.38 253.225C222.335 253.244 222.286 253.255 222.236 253.255ZM27.4836 252.652H221.824L207.247 189.813L196.775 180.906C196.721 180.86 196.685 180.799 196.674 180.733L188.932 135.555L176.73 128.019C176.664 127.977 176.616 127.915 176.595 127.845L162.383 77.67L151.648 96.2806C151.625 96.3204 151.593 96.3552 151.553 96.3823C151.513 96.4093 151.467 96.428 151.418 96.437L146.157 97.3995L133.703 115.021L130.034 151.911L128.901 163.303C128.896 163.347 128.881 163.39 128.856 163.428C128.831 163.466 128.797 163.499 128.756 163.524L114.782 172.149L99.1592 192.266L99.0283 195.752C99.0262 195.806 99.0081 195.858 98.9757 195.904C98.9434 195.95 98.8981 195.986 98.8445 196.011L81.1562 204.041L74.3657 220.177C74.3484 220.218 74.3215 220.255 74.2868 220.286C74.2521 220.316 74.2104 220.34 74.1646 220.354L47.642 228.825L41.0314 243.526C41.0108 243.571 40.9781 243.612 40.9361 243.643C40.8942 243.675 40.8442 243.697 40.7907 243.707L32.5762 245.277L27.4836 252.652Z" fill="#242D35"/>
<path d="M147.174 117.574C147.167 117.574 147.16 117.574 147.153 117.573C147.109 117.571 147.066 117.56 147.027 117.543C146.987 117.526 146.952 117.501 146.923 117.472C146.894 117.442 146.872 117.407 146.857 117.37C146.843 117.332 146.837 117.293 146.84 117.253L147.979 101.14C147.982 101.096 147.996 101.054 148.019 101.015L151.057 95.9969C151.1 95.9277 151.172 95.8765 151.257 95.8545C151.341 95.8325 151.432 95.8415 151.51 95.8795C151.587 95.9176 151.644 95.9816 151.67 96.0576C151.695 96.1336 151.686 96.2156 151.645 96.2857L148.642 101.245L147.508 117.292C147.502 117.368 147.465 117.44 147.403 117.492C147.341 117.545 147.259 117.574 147.174 117.574ZM176.92 127.77L184.705 157.213L180.812 130.174L176.92 127.77Z" fill="#242D35"/>
<path d="M184.705 157.514C184.629 157.514 184.557 157.491 184.498 157.449C184.439 157.407 184.397 157.348 184.38 157.283L176.595 127.84C176.579 127.781 176.584 127.719 176.608 127.662C176.632 127.605 176.675 127.556 176.731 127.522C176.787 127.487 176.853 127.469 176.92 127.469C176.988 127.469 177.054 127.487 177.109 127.522L181.002 129.926C181.08 129.974 181.132 130.051 181.144 130.136L185.037 157.174C185.043 157.217 185.039 157.26 185.025 157.301C185.011 157.342 184.987 157.38 184.956 157.412C184.925 157.444 184.886 157.47 184.842 157.488C184.799 157.505 184.752 157.514 184.704 157.514L184.705 157.514ZM177.447 128.461L183.553 151.557L180.5 130.347L177.447 128.461ZM98.5675 253.255C98.5097 253.255 98.453 253.242 98.4028 253.216C98.3526 253.19 98.3106 253.153 98.281 253.109C98.2513 253.064 98.2349 253.013 98.2335 252.961C98.2321 252.909 98.2456 252.858 98.2727 252.812L108.272 235.933C108.321 235.851 108.41 235.793 108.513 235.778L114.406 234.893L122.565 217.366C122.59 217.311 122.633 217.264 122.688 217.232C122.743 217.199 122.807 217.181 122.873 217.181H154.243L158.277 189.801C158.284 189.757 158.301 189.715 158.327 189.678L166.631 177.922L164.02 141.517C164.017 141.478 164.023 141.438 164.037 141.4C164.051 141.363 164.073 141.328 164.102 141.299C164.131 141.269 164.167 141.245 164.206 141.227C164.245 141.21 164.288 141.199 164.332 141.197C164.376 141.194 164.42 141.2 164.461 141.212C164.503 141.225 164.541 141.245 164.574 141.271C164.607 141.297 164.634 141.329 164.654 141.365C164.673 141.4 164.685 141.439 164.688 141.478L167.306 177.981C167.31 178.045 167.292 178.109 167.254 178.163L158.931 189.946L154.867 217.522C154.857 217.595 154.817 217.661 154.756 217.709C154.695 217.757 154.617 217.784 154.536 217.784H123.095L114.952 235.279C114.93 235.326 114.895 235.367 114.851 235.399C114.806 235.431 114.754 235.452 114.698 235.46L108.785 236.348L98.8629 253.096C98.8343 253.144 98.7917 253.184 98.7396 253.212C98.6876 253.24 98.6282 253.255 98.5675 253.255ZM197.004 180.687L201.952 209.717L201.156 184.218L197.004 180.687Z" fill="#242D35"/>
<path d="M201.951 210.019C201.871 210.019 201.794 209.993 201.733 209.946C201.673 209.899 201.633 209.834 201.621 209.763L196.673 180.733C196.662 180.671 196.674 180.607 196.705 180.551C196.736 180.495 196.787 180.449 196.848 180.42C196.91 180.391 196.98 180.38 197.049 180.389C197.118 180.397 197.183 180.425 197.233 180.468L201.385 183.999C201.45 184.054 201.487 184.13 201.49 184.209L202.286 209.709C202.287 209.749 202.279 209.789 202.263 209.827C202.247 209.865 202.222 209.899 202.191 209.928C202.16 209.957 202.123 209.98 202.081 209.995C202.04 210.011 201.996 210.019 201.951 210.019ZM197.482 181.508L201.466 204.882L200.825 184.351L197.482 181.509L197.482 181.508ZM162.11 253.255C162.06 253.255 162.011 253.245 161.966 253.226C161.92 253.206 161.881 253.178 161.849 253.143C161.818 253.107 161.796 253.066 161.784 253.022C161.773 252.978 161.772 252.932 161.783 252.888L163.556 245.703C163.567 245.655 163.592 245.61 163.628 245.573C163.664 245.535 163.709 245.506 163.76 245.488L173.947 241.906L176.587 215.748C176.592 215.689 176.617 215.633 176.658 215.587L185.012 206.121C185.067 206.059 185.148 206.019 185.236 206.01C185.324 206.001 185.413 206.023 185.482 206.073C185.552 206.123 185.596 206.196 185.606 206.275C185.616 206.354 185.591 206.434 185.536 206.497L177.244 215.892L174.595 242.147C174.589 242.203 174.566 242.256 174.529 242.301C174.492 242.345 174.441 242.38 174.383 242.4L164.17 245.991L162.437 253.019C162.42 253.086 162.379 253.146 162.319 253.189C162.26 253.232 162.186 253.255 162.11 253.255ZM215.78 252.954L214.008 246.909L207.299 243.602L204.134 226.267L210.17 242.811L216.977 245.17L222.235 252.953L215.78 252.954Z" fill="#242D35"/>
<path d="M215.78 253.255C215.706 253.255 215.634 253.233 215.576 253.193C215.517 253.152 215.475 253.095 215.456 253.031L213.721 247.112L207.138 243.867C207.094 243.845 207.055 243.814 207.026 243.776C206.996 243.739 206.977 243.696 206.969 243.651L203.804 226.316C203.79 226.241 203.808 226.164 203.855 226.101C203.901 226.037 203.972 225.992 204.054 225.974C204.136 225.956 204.223 225.966 204.297 226.003C204.37 226.04 204.426 226.101 204.452 226.173L210.438 242.581L217.097 244.888C217.166 244.912 217.225 244.956 217.263 245.013L222.521 252.796C222.552 252.842 222.569 252.894 222.57 252.948C222.571 253.001 222.556 253.054 222.527 253.101C222.498 253.148 222.456 253.186 222.404 253.214C222.353 253.241 222.295 253.255 222.235 253.255L215.78 253.255V253.255ZM207.602 243.408L214.168 246.645C214.249 246.685 214.307 246.753 214.331 246.832L216.037 252.652L221.64 252.652L216.751 245.414L210.05 243.092C210.004 243.076 209.962 243.051 209.928 243.019C209.893 242.986 209.868 242.947 209.852 242.905L205.166 230.059L207.602 243.408V243.408ZM38.9483 247.439C38.893 247.439 38.8384 247.427 38.7897 247.403C38.7409 247.379 38.6994 247.345 38.669 247.303C38.6385 247.262 38.62 247.214 38.6151 247.164C38.6102 247.115 38.6191 247.065 38.6409 247.019L40.4129 243.293C40.4495 243.222 40.5154 243.166 40.5968 243.138C40.6782 243.11 40.7686 243.111 40.8487 243.142C40.9289 243.173 40.9924 243.231 41.0259 243.304C41.0594 243.376 41.0601 243.458 41.028 243.531L39.2559 247.256C39.2301 247.31 39.1873 247.357 39.1326 247.389C39.0779 247.422 39.0138 247.439 38.9483 247.439ZM67.5555 238.011C67.5025 238.011 67.4502 238 67.4031 237.978C67.3559 237.957 67.3151 237.925 67.2841 237.886C67.2531 237.848 67.2328 237.803 67.2248 237.756C67.2167 237.708 67.2213 237.66 67.238 237.615L73.7357 219.976C73.7495 219.938 73.7714 219.904 73.8001 219.874C73.8288 219.844 73.8638 219.819 73.9031 219.801C73.9424 219.784 73.9851 219.773 74.0289 219.77C74.0727 219.767 74.1167 219.772 74.1584 219.785C74.2001 219.797 74.2387 219.817 74.2719 219.843C74.3051 219.869 74.3324 219.9 74.3521 219.936C74.3718 219.971 74.3836 220.009 74.3867 220.049C74.3899 220.088 74.3844 220.128 74.3706 220.166L67.8729 237.805C67.8508 237.865 67.8083 237.917 67.7513 237.954C67.6943 237.991 67.6259 238.011 67.5556 238.011L67.5555 238.011ZM98.6938 195.741L98.565 221.991L94.3934 197.694L98.6938 195.741Z" fill="#242D35"/>
<path d="M98.5649 222.292C98.4851 222.292 98.4079 222.266 98.3473 222.219C98.2868 222.172 98.2467 222.108 98.2345 222.037L94.0629 197.74C94.0521 197.677 94.0638 197.613 94.0961 197.556C94.1285 197.499 94.1799 197.453 94.243 197.425L98.5436 195.472C98.5948 195.449 98.6516 195.438 98.7088 195.44C98.766 195.442 98.8216 195.458 98.8703 195.485C98.9189 195.512 98.9591 195.55 98.9868 195.595C99.0145 195.64 99.029 195.691 99.0287 195.742L98.8998 221.992C98.8994 222.072 98.8639 222.148 98.8012 222.204C98.7384 222.26 98.6534 222.292 98.5649 222.292ZM94.7612 197.864L98.2493 218.18L98.3571 196.232L94.7612 197.864ZM127.301 177.723C127.255 177.723 127.209 177.714 127.167 177.698C127.125 177.681 127.087 177.657 127.055 177.626C127.024 177.596 127 177.559 126.985 177.52C126.97 177.481 126.964 177.439 126.967 177.397L128.233 163.252C128.237 163.212 128.249 163.174 128.269 163.139C128.288 163.103 128.316 163.072 128.349 163.046C128.383 163.021 128.422 163.001 128.464 162.989C128.506 162.977 128.55 162.972 128.593 162.976C128.682 162.982 128.764 163.02 128.821 163.081C128.879 163.142 128.907 163.221 128.9 163.3L127.634 177.446C127.628 177.521 127.59 177.592 127.528 177.643C127.466 177.694 127.385 177.723 127.301 177.723H127.301ZM232.031 253.255H16.5616C16.4729 253.255 16.3878 253.223 16.325 253.167C16.2623 253.11 16.2271 253.034 16.2271 252.954C16.2271 252.874 16.2623 252.797 16.325 252.741C16.3878 252.684 16.4729 252.652 16.5616 252.652H232.031C232.12 252.652 232.205 252.684 232.268 252.741C232.331 252.797 232.366 252.874 232.366 252.954C232.366 253.034 232.331 253.11 232.268 253.167C232.205 253.223 232.12 253.255 232.031 253.255Z" fill="#242D35"/>
</g>
<g clip-path="url(#clip3_0_2342)">
<path d="M154.102 87.8478H92.514C90.4013 83.4424 98.532 75.2691 108.071 80.718C111.72 66.2843 138.225 66.4582 140.594 82.6888C147.508 76.3126 156.151 83.0945 154.102 87.8478Z" fill="white"/>
</g>
<g clip-path="url(#clip4_0_2342)">
<path d="M189.875 74.7176L181.204 81.069L139.225 111.821L133.173 97.1637L124.695 76.6271L189.875 74.7176Z" fill="url(#paint2_linear_0_2342)"/>
<path d="M139.224 112.123C139.156 112.123 139.09 112.104 139.034 112.069C138.978 112.034 138.936 111.984 138.912 111.927L124.382 76.7327C124.363 76.6878 124.357 76.6396 124.363 76.5921C124.369 76.5446 124.388 76.499 124.417 76.4593C124.447 76.4195 124.486 76.3867 124.533 76.3634C124.579 76.3402 124.631 76.3273 124.684 76.3258L189.864 74.4161C189.934 74.4137 190.003 74.4314 190.061 74.4667C190.119 74.5019 190.164 74.5529 190.188 74.6124C190.238 74.7338 190.196 74.8704 190.085 74.952L139.435 112.055C139.375 112.099 139.3 112.123 139.224 112.123ZM125.17 76.9152L139.375 111.323L188.893 75.0483L125.17 76.9152Z" fill="#242D35"/>
<path d="M181.205 81.069L139.225 111.821L133.173 97.1637C135.851 99.043 139.599 99.684 142.817 98.6765C146.319 97.5815 149.04 94.8017 152.671 94.1321C154.3 93.8334 156.031 93.9797 157.587 93.4533C159.365 92.8515 160.644 91.47 161.989 90.2618C167.187 85.5998 174.168 83.0734 181.205 81.069Z" fill="#242D35"/>
<path d="M139.225 112.123C139.157 112.123 139.09 112.104 139.034 112.069C138.978 112.034 138.936 111.984 138.912 111.927L132.86 97.2691C132.835 97.2076 132.833 97.1403 132.853 97.0773C132.874 97.0144 132.917 96.9593 132.976 96.9204C133.034 96.8816 133.105 96.861 133.178 96.8619C133.25 96.8628 133.321 96.8851 133.378 96.9254C136.004 98.768 139.666 99.3437 142.708 98.3914C144.237 97.9131 145.652 97.083 147.021 96.2803C148.75 95.2663 150.537 94.2177 152.604 93.8364C153.272 93.7141 153.956 93.6642 154.618 93.6159C155.625 93.5426 156.576 93.4732 157.47 93.1708C158.895 92.6885 160.021 91.6461 161.11 90.6378C161.324 90.4394 161.538 90.2413 161.754 90.0478C167.159 85.1998 174.569 82.643 181.104 80.7813C181.178 80.7604 181.258 80.7635 181.33 80.7899C181.402 80.8164 181.461 80.8647 181.498 80.9265C181.535 80.9882 181.546 81.0596 181.531 81.1284C181.516 81.1972 181.475 81.259 181.415 81.3033L139.435 112.055C139.375 112.099 139.3 112.123 139.225 112.123ZM133.859 97.9611L139.375 111.322L179.605 81.8523C173.591 83.6516 167.068 86.1322 162.224 90.476C162.011 90.6689 161.798 90.8634 161.588 91.0593C160.448 92.1147 159.269 93.2061 157.704 93.7358C156.723 94.0678 155.68 94.1438 154.672 94.2173C154.029 94.2642 153.365 94.3126 152.737 94.4277C150.794 94.786 149.138 95.7577 147.385 96.7863C145.983 97.6088 144.533 98.4593 142.926 98.9615C140.008 99.8754 136.559 99.4749 133.859 97.9612L133.859 97.9611Z" fill="#242D35"/>
<path d="M161.038 161.182L125.782 75.7931C125.517 75.1518 124.727 74.8258 124.018 75.0651L124.017 75.0651C123.308 75.3043 122.947 76.0182 123.212 76.6595L158.467 162.048C158.732 162.69 159.522 163.016 160.232 162.776L160.232 162.776C160.942 162.537 161.303 161.823 161.038 161.182Z" fill="white"/>
<path d="M159.751 163.157C159.51 163.157 159.27 163.11 159.044 163.017C158.84 162.933 158.656 162.814 158.503 162.666C158.35 162.518 158.232 162.344 158.154 162.154L122.899 76.7647C122.82 76.5752 122.784 76.3734 122.792 76.1711C122.8 75.9688 122.852 75.7699 122.946 75.586C123.038 75.4016 123.17 75.2356 123.334 75.0976C123.498 74.9596 123.691 74.8524 123.901 74.7822C124.782 74.4849 125.766 74.8914 126.095 75.6875L161.35 161.076C161.679 161.873 161.229 162.762 160.348 163.059C160.154 163.125 159.952 163.157 159.751 163.157ZM124.496 75.2882C124.376 75.2882 124.253 75.3072 124.134 75.3475C123.874 75.435 123.668 75.6086 123.553 75.8365C123.438 76.0644 123.428 76.3191 123.525 76.5538L158.78 161.943C158.827 162.059 158.899 162.164 158.992 162.255C159.085 162.345 159.197 162.417 159.321 162.468C159.445 162.52 159.579 162.548 159.715 162.553C159.851 162.557 159.987 162.537 160.115 162.494C160.373 162.406 160.582 162.231 160.696 162.004C160.81 161.778 160.82 161.52 160.725 161.287L125.469 75.8983C125.395 75.7192 125.262 75.5648 125.088 75.4558C124.914 75.3467 124.708 75.2883 124.496 75.2882Z" fill="#242D35"/>
</g>
<g clip-path="url(#clip5_0_2342)">
<path d="M57.374 242.447L55.7168 248.349L65.8345 249.373L69.1489 240.4L57.374 242.447Z" fill="url(#paint3_linear_0_2342)"/>
<path d="M65.8344 249.674C65.8221 249.674 65.8097 249.674 65.797 249.672L55.6794 248.649C55.632 248.644 55.5862 248.63 55.5452 248.608C55.5042 248.586 55.4689 248.556 55.4418 248.521C55.4146 248.486 55.3961 248.445 55.3876 248.403C55.3792 248.36 55.3808 248.317 55.3926 248.275L57.0498 242.372C57.0654 242.317 57.0982 242.266 57.1444 242.227C57.1906 242.188 57.2483 242.161 57.3107 242.15L69.0856 240.104C69.143 240.094 69.2022 240.098 69.2574 240.115C69.3127 240.132 69.362 240.162 69.4004 240.201C69.4389 240.241 69.4652 240.289 69.4768 240.34C69.4883 240.392 69.4846 240.446 69.4661 240.496L66.1517 249.468C66.1295 249.528 66.087 249.58 66.0301 249.617C65.9732 249.654 65.9049 249.674 65.8348 249.674H65.8344ZM56.1348 248.088L65.6026 249.046L68.6507 240.794L57.6457 242.707L56.1348 248.088V248.088Z" fill="#242D35"/>
<path d="M139.013 208.092L138.141 212.578L127.587 213.09L128.459 206.006L139.013 208.092Z" fill="url(#paint4_linear_0_2342)"/>
<path d="M127.587 213.391C127.54 213.391 127.494 213.382 127.451 213.365C127.408 213.348 127.37 213.322 127.338 213.291C127.307 213.259 127.283 213.222 127.269 213.181C127.255 213.141 127.25 213.098 127.255 213.056L128.127 205.973C128.133 205.931 128.148 205.89 128.171 205.854C128.195 205.817 128.227 205.786 128.265 205.761C128.303 205.737 128.346 205.719 128.392 205.711C128.438 205.702 128.485 205.702 128.531 205.711L139.085 207.797C139.169 207.814 139.243 207.859 139.291 207.924C139.339 207.988 139.358 208.067 139.343 208.144L138.47 212.63C138.457 212.697 138.42 212.759 138.363 212.804C138.307 212.849 138.235 212.876 138.159 212.879L127.606 213.391C127.6 213.391 127.594 213.391 127.588 213.391H127.587ZM128.751 206.373L127.963 212.769L137.858 212.29L138.629 208.325L128.751 206.373ZM56.4234 245.833C58.2157 245.833 59.2929 247.562 61.081 247.72C62.8691 247.877 65.2502 246.744 66.8071 246.74C65.8346 249.372 66.7168 249.802 66.3034 251.057C66.123 251.605 65.7513 252.085 65.2436 252.427C64.736 252.769 64.1196 252.953 63.4863 252.953H42.5342C41.7796 252.953 41.2737 252.254 41.5773 251.631L41.7953 251.183C42.2022 250.348 42.8648 249.636 43.7052 249.129C44.5456 248.622 45.5289 248.342 46.5395 248.322L49.3613 248.277C50.9441 248.252 52.4684 247.746 53.7016 246.851C54.4363 246.317 55.3884 245.833 56.4234 245.833V245.833Z" fill="#242D35"/>
<path d="M63.4861 253.255H42.534C42.0662 253.255 41.6344 253.044 41.3788 252.691C41.1232 252.337 41.0827 251.896 41.271 251.509L41.489 251.062C42.3683 249.257 44.3478 248.064 46.5319 248.021L49.3552 247.975C50.8484 247.952 52.3175 247.469 53.4917 246.616C54.4831 245.896 55.4692 245.531 56.4231 245.531C57.4588 245.531 58.2562 246.035 59.0272 246.522C59.7026 246.948 60.3405 247.351 61.1134 247.419C62.0389 247.5 63.1716 247.203 64.2655 246.914C65.1906 246.67 66.0646 246.44 66.8058 246.438H66.8068C66.8598 246.438 66.912 246.449 66.9592 246.471C67.0064 246.493 67.0471 246.525 67.0781 246.563C67.1091 246.602 67.1294 246.647 67.1373 246.694C67.1453 246.742 67.1407 246.79 67.124 246.835C66.5611 248.359 66.6413 249.088 66.7124 249.73C66.7609 250.171 66.8067 250.587 66.6236 251.143C66.2137 252.386 64.9235 253.255 63.4859 253.255L63.4861 253.255ZM56.4231 246.134C55.6256 246.134 54.7805 246.455 53.911 247.086C52.6216 248.022 51.0079 248.553 49.3669 248.579L46.5452 248.624C44.6211 248.662 42.8762 249.714 42.1012 251.305L41.8832 251.752C41.7847 251.954 41.8049 252.176 41.9387 252.361C42.0724 252.546 42.2894 252.652 42.534 252.652H63.4861C64.6299 252.652 65.6565 251.961 65.9828 250.971C66.1286 250.529 66.0927 250.203 66.0472 249.79C65.9802 249.183 65.8982 248.44 66.3408 247.074C65.7821 247.143 65.1323 247.315 64.4532 247.493C63.298 247.798 62.1022 248.113 61.0485 248.02C60.1011 247.936 59.3602 247.469 58.6439 247.016C57.926 246.563 57.2481 246.134 56.4233 246.134L56.4231 246.134ZM127.784 211.488C127.54 212.668 127.173 213.611 126.748 214.556C126.323 215.5 125.603 217.448 128.416 217.448H151.335C152.002 217.448 152.436 216.816 152.139 216.278L151.518 215.148C151.212 214.591 150.761 214.11 150.205 213.744C149.648 213.378 149.002 213.138 148.321 213.046L143.193 212.349C141.811 212.161 140.558 211.566 139.502 210.739C139.265 210.554 138.974 210.424 138.621 210.424C137.41 210.424 134.924 211.545 133.616 211.545C131.523 211.545 128.187 209.548 127.784 211.488L127.784 211.488Z" fill="#242D35"/>
<path d="M151.336 217.749H128.416C127.382 217.749 126.669 217.495 126.295 216.994C125.733 216.241 126.107 215.177 126.438 214.442C126.817 213.6 127.203 212.653 127.456 211.433C127.542 211.017 127.753 210.714 128.084 210.533C128.839 210.12 130.019 210.443 131.269 210.785C132.091 211.01 132.942 211.243 133.616 211.243C134.229 211.243 135.183 210.957 136.105 210.681C137.066 210.394 137.974 210.122 138.621 210.122C139.021 210.122 139.391 210.253 139.721 210.511C140.793 211.35 142.011 211.883 143.243 212.05L148.371 212.747C149.105 212.847 149.802 213.105 150.402 213.5C151.001 213.894 151.487 214.413 151.817 215.013L152.439 216.143C152.533 216.313 152.577 216.501 152.567 216.69C152.557 216.879 152.494 217.063 152.383 217.223C152.273 217.385 152.119 217.518 151.935 217.61C151.752 217.702 151.545 217.75 151.336 217.749V217.749ZM128.113 211.544C127.849 212.816 127.45 213.798 127.058 214.669C126.9 215.019 126.421 216.083 126.849 216.657C127.091 216.982 127.619 217.146 128.416 217.146H151.336C151.432 217.147 151.526 217.125 151.61 217.083C151.694 217.041 151.765 216.98 151.814 216.906C151.866 216.832 151.895 216.748 151.9 216.662C151.905 216.575 151.884 216.489 151.84 216.412L151.219 215.282C150.936 214.769 150.521 214.325 150.008 213.988C149.495 213.65 148.899 213.43 148.272 213.344L143.144 212.647C141.786 212.462 140.451 211.881 139.283 210.967C139.075 210.804 138.858 210.725 138.621 210.725C138.082 210.725 137.184 210.994 136.315 211.254C135.343 211.545 134.337 211.847 133.616 211.847C132.843 211.847 131.944 211.601 131.074 211.362C130.02 211.074 128.93 210.775 128.431 211.049C128.268 211.139 128.163 211.3 128.113 211.544Z" fill="#242D35"/>
<path d="M73.1831 167.105C74.9276 166.594 76.2795 165.059 77.5005 164.823C78.7216 164.587 78.7463 166.948 78.7463 166.948L74.8403 168.247L73.1831 167.105V167.105Z" fill="url(#paint5_linear_0_2342)"/>
<path d="M74.8398 168.548C74.7674 168.548 74.6962 168.527 74.6371 168.486L72.9799 167.345C72.9313 167.312 72.8938 167.267 72.8714 167.216C72.8491 167.165 72.8426 167.109 72.8529 167.054C72.8631 167 72.8897 166.949 72.9296 166.908C72.9695 166.866 73.0213 166.835 73.0793 166.818C73.9261 166.57 74.6772 166.064 75.4034 165.575C76.1045 165.102 76.767 164.656 77.43 164.528C77.7477 164.466 78.0451 164.528 78.29 164.705C79.0411 165.247 79.0785 166.773 79.0804 166.945C79.081 167.007 79.0604 167.068 79.0212 167.12C78.982 167.171 78.9263 167.21 78.8615 167.231L74.9555 168.53C74.9185 168.542 74.8794 168.548 74.84 168.548L74.8398 168.548ZM73.8548 167.188L74.8965 167.906L78.4028 166.74C78.3654 166.19 78.2072 165.417 77.8717 165.175C77.7841 165.112 77.691 165.094 77.57 165.118C77.0499 165.218 76.4444 165.626 75.8033 166.058C75.2195 166.451 74.5737 166.886 73.8548 167.188V167.188Z" fill="#242D35"/>
<path d="M135.533 129.57C137.015 128.843 138.708 127.931 139.493 127.341C140.278 126.75 141.223 125.972 141.957 125.57C143.789 124.566 144.756 125.323 146.765 124.537C148.499 123.858 148.597 125.127 147.321 125.747C148.411 125.609 148.695 126.121 148.193 126.869C149.087 126.75 149.61 127.478 148.956 128.01C150.036 128.128 149.779 128.989 148.035 129.928C144.835 131.65 143.08 131.31 141.695 132.034C139.754 133.047 139.1 133.598 137.399 135.211C135.797 133.647 134.977 132.02 135.533 129.57Z" fill="url(#paint6_linear_0_2342)"/>
<path d="M137.399 135.513H137.397C137.351 135.512 137.306 135.504 137.264 135.487C137.222 135.47 137.185 135.446 137.154 135.416C135.267 133.574 134.684 131.808 135.206 129.509C135.215 129.466 135.236 129.426 135.265 129.39C135.294 129.355 135.331 129.326 135.374 129.305C136.743 128.633 138.489 127.703 139.279 127.109C139.461 126.972 139.651 126.825 139.845 126.675C140.51 126.163 141.197 125.633 141.783 125.312C142.835 124.735 143.646 124.699 144.43 124.664C145.081 124.634 145.753 124.604 146.632 124.26C147.942 123.747 148.348 124.271 148.441 124.444C148.609 124.757 148.497 125.152 148.184 125.498C148.41 125.573 148.547 125.691 148.629 125.804C148.727 125.938 148.838 126.194 148.704 126.587C149.059 126.659 149.35 126.851 149.494 127.127C149.614 127.357 149.612 127.608 149.501 127.84C149.791 127.977 149.888 128.179 149.919 128.313C150.047 128.859 149.438 129.524 148.206 130.187C146.211 131.26 144.778 131.549 143.626 131.78C142.919 131.922 142.359 132.035 141.862 132.294C140.003 133.266 139.363 133.786 137.642 135.419C137.61 135.449 137.573 135.472 137.531 135.488C137.49 135.504 137.445 135.513 137.399 135.513ZM135.831 129.767C135.424 131.713 135.887 133.19 137.407 134.767C138.999 133.267 139.686 132.734 141.527 131.772C142.114 131.466 142.747 131.339 143.481 131.191C144.586 130.969 145.961 130.692 147.864 129.669C148.997 129.059 149.297 128.576 149.265 128.438C149.254 128.392 149.131 128.332 148.916 128.309C148.852 128.302 148.792 128.279 148.743 128.242C148.693 128.205 148.657 128.156 148.638 128.1C148.618 128.045 148.617 127.986 148.634 127.93C148.651 127.874 148.685 127.824 148.733 127.785C148.828 127.707 148.976 127.552 148.889 127.383C148.815 127.242 148.586 127.121 148.242 127.167C148.179 127.175 148.115 127.167 148.057 127.144C147.999 127.121 147.95 127.083 147.915 127.035C147.879 126.988 147.86 126.932 147.859 126.875C147.858 126.817 147.874 126.761 147.907 126.712C148.114 126.404 148.125 126.209 148.071 126.136C148.015 126.06 147.798 125.991 147.367 126.045C147.289 126.056 147.21 126.041 147.144 126.003C147.077 125.966 147.027 125.908 147.003 125.84C146.979 125.773 146.981 125.7 147.01 125.635C147.039 125.569 147.093 125.515 147.162 125.481C147.723 125.208 147.904 124.827 147.839 124.707C147.803 124.639 147.515 124.572 146.898 124.813C145.908 125.201 145.14 125.236 144.463 125.266C143.698 125.301 143.038 125.33 142.13 125.828C141.59 126.123 140.924 126.637 140.28 127.134C140.083 127.285 139.891 127.434 139.707 127.572C138.728 128.308 136.641 129.366 135.831 129.767V129.767Z" fill="#242D35"/>
<path d="M131.752 131.414C133.061 130.854 135.533 129.57 135.533 129.57L140.583 136.943L135.709 139.618L131.425 135.103L131.752 131.413L131.752 131.414Z" fill="white"/>
<path d="M135.71 139.92C135.661 139.92 135.614 139.911 135.57 139.893C135.526 139.875 135.487 139.848 135.455 139.815L131.171 135.299C131.142 135.269 131.12 135.234 131.107 135.196C131.093 135.158 131.088 135.119 131.091 135.079L131.419 131.39C131.423 131.337 131.443 131.286 131.477 131.242C131.51 131.198 131.556 131.164 131.609 131.141C132.891 130.593 135.342 129.321 135.366 129.309C135.442 129.27 135.531 129.258 135.615 129.278C135.699 129.297 135.772 129.345 135.818 129.412L140.867 136.784C140.891 136.818 140.906 136.856 140.913 136.895C140.92 136.934 140.918 136.974 140.908 137.013C140.898 137.052 140.879 137.088 140.853 137.12C140.827 137.153 140.795 137.18 140.757 137.201L135.883 139.877C135.831 139.905 135.771 139.92 135.71 139.92V139.92ZM131.769 135.002L135.779 139.227L140.122 136.843L135.419 129.977C134.767 130.312 133.14 131.139 132.07 131.61L131.769 135.002L131.769 135.002Z" fill="#242D35"/>
<path d="M72.2889 133.657C76.0395 132.496 78.3508 132.22 81.687 131.886C85.0231 131.551 95.8386 134.463 95.8386 134.463L108.049 164.922L86.8547 170.038L70.8823 142.255L72.2888 133.657H72.2889Z" fill="white"/>
<path d="M86.8546 170.34C86.7934 170.34 86.7333 170.325 86.681 170.296C86.6287 170.267 86.5861 170.226 86.5579 170.177L70.5854 142.394C70.553 142.338 70.5412 142.274 70.5515 142.211L71.9579 133.613C71.9668 133.558 71.9923 133.506 72.0315 133.464C72.0707 133.421 72.1221 133.389 72.1801 133.371C75.9059 132.218 78.2433 131.927 81.6498 131.586C85.013 131.246 95.4897 134.054 95.934 134.174C96.0355 134.202 96.1167 134.271 96.1528 134.361L108.364 164.819C108.379 164.859 108.386 164.9 108.383 164.942C108.38 164.984 108.367 165.024 108.346 165.061C108.324 165.099 108.294 165.131 108.258 165.157C108.222 165.183 108.18 165.203 108.136 165.213L86.941 170.329C86.9129 170.336 86.8838 170.34 86.8546 170.339V170.34ZM71.2287 142.203L87.0276 169.684L107.611 164.716L95.5816 134.71C94.2248 134.351 84.7365 131.884 81.7235 132.186C78.4322 132.516 76.2103 132.777 72.5895 133.883L71.2287 142.203Z" fill="#242D35"/>
<path d="M80.6848 130.764L77.4493 126.547C80.6398 125.015 80.7983 121.929 80.4026 119.848C80.9745 119.608 81.6012 119.255 81.4469 118.683C81.3583 118.355 80.8583 118.103 79.9355 118.249C79.1423 116.387 75.9838 111.615 71.1112 112.643C66.0743 113.705 65.9434 120.553 65.9434 120.553L69.0179 123.504L71.6998 132.417L79.8115 133.273L80.6848 130.765V130.764Z" fill="url(#paint7_linear_0_2342)"/>
<path d="M79.8119 133.575C79.799 133.575 79.786 133.574 79.7729 133.573L71.6615 132.717C71.5952 132.71 71.5327 132.685 71.4822 132.646C71.4316 132.606 71.3952 132.554 71.3778 132.496L68.7175 123.655L65.7002 120.759C65.6405 120.702 65.608 120.626 65.6094 120.547C65.6149 120.258 65.8048 113.452 71.0356 112.349C75.9324 111.315 79.1691 115.824 80.1482 117.918C81.1769 117.825 81.6665 118.22 81.7723 118.612C81.9738 119.36 81.2325 119.806 80.7721 120.021C81.0301 121.605 81.1197 124.904 77.9328 126.646L80.9604 130.592C81.0192 130.669 81.0353 130.766 81.0045 130.855L80.131 133.363C80.1097 133.425 80.0673 133.478 80.0099 133.516C79.9526 133.554 79.8833 133.575 79.8122 133.575H79.8119ZM71.9635 132.141L79.5757 132.944L80.3172 130.814L77.1747 126.719C77.1478 126.684 77.1295 126.644 77.1209 126.602C77.1123 126.56 77.1136 126.517 77.1247 126.476C77.1358 126.434 77.1565 126.396 77.1855 126.362C77.2144 126.328 77.2509 126.301 77.2926 126.281C80.4774 124.751 80.4018 121.626 80.0733 119.899C80.0609 119.834 80.0726 119.766 80.1067 119.708C80.1408 119.649 80.1953 119.602 80.2619 119.574C81.123 119.213 81.1742 118.946 81.1224 118.754C81.0836 118.611 80.7424 118.427 79.9936 118.546C79.9172 118.558 79.8384 118.546 79.7709 118.512C79.7033 118.477 79.6512 118.422 79.6235 118.357C78.8408 116.519 75.8009 111.963 71.1875 112.936C66.8199 113.857 66.3328 119.536 66.2831 120.438L69.2615 123.297C69.2991 123.333 69.3262 123.377 69.3406 123.425L71.9635 132.141Z" fill="#242D35"/>
<path d="M76.7288 119.006C77.7208 118.702 78.3726 118.051 78.1846 117.552C77.9967 117.053 77.0401 116.895 76.0481 117.199C75.0561 117.504 74.4043 118.155 74.5923 118.654C74.7802 119.153 75.7368 119.311 76.7288 119.006Z" fill="white"/>
<path d="M75.7549 119.462C75.027 119.462 74.4472 119.207 74.2754 118.751C74.0243 118.084 74.7557 117.277 75.9403 116.913C77.1252 116.55 78.2496 116.788 78.5009 117.455C78.752 118.121 78.0207 118.928 76.836 119.292C76.4612 119.407 76.0919 119.462 75.7547 119.462H75.7549ZM77.0353 117.346C76.7738 117.346 76.4709 117.388 76.1554 117.485C75.3087 117.745 74.7986 118.265 74.9085 118.556C75.0185 118.848 75.7739 118.98 76.6208 118.721C77.4676 118.461 77.9776 117.94 77.8678 117.649C77.7987 117.466 77.4754 117.346 77.0353 117.346Z" fill="#242D35"/>
<path d="M77.3569 118.299C77.6967 118.299 77.9721 118.051 77.9721 117.744C77.9721 117.438 77.6967 117.189 77.3569 117.189C77.0171 117.189 76.7417 117.438 76.7417 117.744C76.7417 118.051 77.0171 118.299 77.3569 118.299Z" fill="#242D35"/>
<path d="M78.1667 122.878C77.4393 122.878 76.671 122.64 76.1599 122.209C76.0952 122.154 76.0571 122.079 76.0541 121.999C76.0511 121.919 76.0835 121.841 76.144 121.782C76.2046 121.724 76.2884 121.69 76.3771 121.687C76.4657 121.684 76.5519 121.713 76.6166 121.768C77.1916 122.253 78.2799 122.423 78.9459 122.13C79.0257 122.095 79.1175 122.091 79.2013 122.117C79.2851 122.143 79.354 122.198 79.3929 122.27C79.4735 122.419 79.4044 122.6 79.2384 122.673C78.9218 122.812 78.55 122.878 78.1667 122.878ZM77.4493 126.547C76.6934 126.967 74.8182 126.967 73.7279 126.547C73.2554 126.365 72.5939 127.006 74.0768 127.459C75.0246 127.748 75.9974 127.495 76.4318 128.128C77.1076 129.111 78.6258 129.333 79.1492 128.762L77.4493 126.547Z" fill="#242D35"/>
<path d="M78.2743 129.374C78.2263 129.374 78.1778 129.372 78.1285 129.369C77.3316 129.32 76.5725 128.905 76.1473 128.287C75.968 128.026 75.6378 127.982 75.0697 127.929C74.7339 127.897 74.3534 127.862 73.9696 127.745C73.2862 127.536 72.906 127.255 72.8395 126.909C72.7995 126.701 72.8886 126.496 73.078 126.36C73.2945 126.206 73.6009 126.17 73.8591 126.269C74.8497 126.651 76.6052 126.661 77.2741 126.29C77.3469 126.249 77.4342 126.236 77.5179 126.251C77.6017 126.267 77.6755 126.312 77.7241 126.375L79.4238 128.591C79.4653 128.645 79.4861 128.71 79.4829 128.775C79.4798 128.841 79.4529 128.904 79.4064 128.955C79.1592 129.224 78.7517 129.374 78.2743 129.374V129.374ZM73.5078 126.826C73.5481 126.887 73.7183 127.031 74.1837 127.173C74.497 127.269 74.8233 127.299 75.1391 127.329C75.7366 127.385 76.3546 127.443 76.7157 127.969C77.091 128.515 77.736 128.74 78.1742 128.767C78.3738 128.779 78.5548 128.755 78.6937 128.699L77.3375 126.931C76.3881 127.269 74.6667 127.236 73.5966 126.824C73.5825 126.819 73.5674 126.817 73.5522 126.817C73.537 126.817 73.5218 126.82 73.5078 126.826Z" fill="#242D35"/>
<path d="M145.031 174.764C144.954 175.675 144.675 177.515 144.277 179.885C144.259 179.997 144.238 180.111 144.218 180.226C142.56 189.998 139.013 208.091 139.013 208.091H125.93C125.93 208.091 128.285 186.016 128.023 177.633L99.1098 175.862L71.7651 242.446H57.373L79.0923 168.778L107.38 161.223C107.38 161.223 114.926 161.591 122.797 162.397C124.002 162.521 125.09 162.632 126.082 162.733C129.428 163.076 131.645 163.305 133.344 163.506C142.677 164.613 145.424 170.125 145.031 174.764Z" fill="url(#paint8_linear_0_2342)"/>
<path d="M145.031 174.764C144.954 175.675 144.675 177.515 144.277 179.885C144.259 179.997 144.239 180.111 144.219 180.226C142.448 178.174 143.722 175.322 142.188 173.64C141.726 173.132 141.061 172.795 140.611 172.278C140.014 171.593 139.867 170.683 139.528 169.869C137.691 165.449 132.413 166.155 130.962 166.078C127.135 165.879 126.981 164.044 126.082 162.733C129.429 163.076 131.646 163.305 133.344 163.506C142.677 164.613 145.424 170.125 145.031 174.764ZM57.374 242.447L79.4847 168.07L81.6872 167.638L58.9657 242.447H57.374Z" fill="white"/>
<path d="M71.7658 242.748H57.3743C57.3231 242.748 57.2726 242.737 57.2267 242.717C57.1807 242.697 57.1406 242.667 57.1094 242.63C57.0782 242.594 57.0567 242.551 57.0466 242.506C57.0365 242.46 57.0381 242.414 57.0511 242.369L78.7692 168.701C78.7839 168.651 78.8126 168.605 78.8526 168.568C78.8925 168.531 78.9424 168.504 78.9974 168.489L107.285 160.934C107.323 160.924 107.363 160.92 107.403 160.922C107.568 160.933 124.022 161.979 131.991 162.94C142.033 164.151 145.985 168.093 145.206 176.122C144.76 180.717 139.397 207.871 139.342 208.145C139.329 208.215 139.288 208.278 139.228 208.323C139.168 208.369 139.092 208.394 139.013 208.394H125.93C125.883 208.394 125.837 208.385 125.795 208.368C125.752 208.351 125.714 208.326 125.683 208.295C125.651 208.264 125.627 208.227 125.613 208.187C125.598 208.147 125.593 208.105 125.597 208.063C125.621 207.845 127.897 186.383 127.697 177.915L99.3362 176.178L72.0792 242.551C72.0555 242.609 72.0128 242.659 71.9568 242.694C71.9007 242.729 71.8341 242.748 71.7658 242.748ZM57.8093 242.145H71.5333L98.7962 175.757C98.8209 175.696 98.8671 175.644 98.9278 175.608C98.9885 175.573 99.0603 175.556 99.1324 175.561L128.046 177.332C128.129 177.337 128.207 177.37 128.265 177.424C128.322 177.478 128.355 177.549 128.358 177.624C128.6 185.369 126.589 204.998 126.298 207.79H138.733C139.277 205.034 144.12 180.403 144.54 176.069C145.29 168.341 141.629 164.711 131.903 163.538C124.198 162.609 108.521 161.598 107.417 161.528L79.3674 169.02L57.8093 242.145Z" fill="#242D35"/>
<path d="M78.4507 166.682L107.136 159.507L107.909 162.021L79.223 169.196L78.4507 166.682Z" fill="url(#paint9_linear_0_2342)"/>
<path d="M79.2234 169.498C79.1503 169.498 79.0792 169.476 79.0211 169.436C78.9629 169.396 78.9208 169.34 78.9013 169.276L78.1289 166.762C78.1172 166.724 78.1138 166.684 78.1192 166.645C78.1245 166.605 78.1384 166.567 78.1601 166.533C78.1817 166.498 78.2107 166.468 78.2453 166.443C78.28 166.419 78.3196 166.401 78.362 166.391L107.048 159.216C107.133 159.195 107.225 159.205 107.302 159.244C107.379 159.284 107.435 159.349 107.459 159.426L108.232 161.94C108.243 161.979 108.247 162.018 108.241 162.058C108.236 162.097 108.222 162.135 108.201 162.17C108.179 162.204 108.15 162.234 108.115 162.259C108.081 162.283 108.041 162.301 107.999 162.312L79.3129 169.487C79.2837 169.494 79.2536 169.498 79.2234 169.498ZM78.8628 166.892L79.4566 168.825L107.498 161.811L106.904 159.878L78.8628 166.892Z" fill="#242D35"/>
<path d="M94.1147 162.764L99.2069 161.49L99.9791 164.005L94.8869 165.278L94.1147 162.764Z" fill="white"/>
<path d="M94.8868 165.58C94.8137 165.58 94.7426 165.558 94.6844 165.518C94.6263 165.478 94.5842 165.422 94.5647 165.358L93.7923 162.844C93.7805 162.806 93.7772 162.766 93.7826 162.727C93.7879 162.687 93.8018 162.649 93.8234 162.615C93.8451 162.58 93.8741 162.55 93.9087 162.526C93.9434 162.501 93.983 162.483 94.0254 162.473L99.1175 161.199C99.1598 161.189 99.204 161.186 99.2477 161.19C99.2913 161.195 99.3334 161.208 99.3716 161.227C99.4099 161.247 99.4434 161.273 99.4705 161.304C99.4975 161.336 99.5174 161.371 99.5291 161.41L100.301 163.924C100.325 164.001 100.314 164.083 100.27 164.153C100.226 164.223 100.154 164.274 100.068 164.295L94.9762 165.569C94.9471 165.576 94.917 165.58 94.8868 165.58ZM94.5262 162.974L95.12 164.907L99.5675 163.794L98.9739 161.861L94.5264 162.974H94.5262ZM93.6143 178.112C93.5367 178.112 93.4613 178.088 93.4013 178.044C93.3412 177.999 93.3002 177.937 93.2851 177.869C93.2701 177.8 93.2821 177.729 93.3189 177.667C93.3558 177.605 93.4153 177.557 93.4872 177.531L107.133 172.482C107.174 172.467 107.217 172.459 107.261 172.459C107.305 172.459 107.348 172.467 107.389 172.483C107.429 172.498 107.466 172.52 107.497 172.548C107.528 172.577 107.552 172.61 107.569 172.647C107.586 172.683 107.594 172.722 107.594 172.762C107.594 172.802 107.585 172.841 107.568 172.877C107.551 172.914 107.526 172.947 107.495 172.975C107.464 173.003 107.427 173.025 107.387 173.04L93.7408 178.089C93.6994 178.105 93.6564 178.112 93.6141 178.112H93.6143Z" fill="#242D35"/>
<path d="M101.988 174.924C101.921 174.924 101.856 174.906 101.8 174.872C101.745 174.839 101.702 174.791 101.677 174.735L97.2368 164.725C97.2051 164.651 97.207 164.569 97.2422 164.496C97.2773 164.423 97.3427 164.366 97.4244 164.336C97.5061 164.307 97.5973 164.307 97.6784 164.338C97.7594 164.369 97.8238 164.427 97.8575 164.501L102.298 174.51C102.319 174.556 102.326 174.606 102.32 174.655C102.315 174.704 102.296 174.751 102.265 174.792C102.234 174.832 102.193 174.866 102.145 174.889C102.097 174.912 102.043 174.924 101.988 174.924H101.988Z" fill="#242D35"/>
<path d="M96.3618 172.799C96.2949 172.799 96.2296 172.781 96.1743 172.747C96.1189 172.713 96.0761 172.665 96.0514 172.609L93.0287 165.777C93.0124 165.74 93.0043 165.701 93.0049 165.661C93.0055 165.622 93.0147 165.582 93.032 165.546C93.0493 165.51 93.0744 165.477 93.1059 165.449C93.1373 165.421 93.1745 165.4 93.2153 165.385C93.256 165.37 93.2996 165.363 93.3435 165.363C93.3874 165.364 93.4308 165.372 93.4712 165.388C93.5115 165.403 93.548 165.426 93.5787 165.455C93.6093 165.483 93.6335 165.516 93.6498 165.553L96.5512 172.112L100.321 170.845C100.362 170.831 100.406 170.824 100.45 170.825C100.495 170.826 100.538 170.835 100.579 170.851C100.619 170.867 100.656 170.891 100.686 170.92C100.716 170.949 100.74 170.984 100.755 171.021C100.771 171.059 100.778 171.098 100.776 171.138C100.774 171.178 100.764 171.218 100.745 171.254C100.726 171.29 100.7 171.323 100.667 171.35C100.634 171.376 100.596 171.397 100.554 171.411L96.4785 172.78C96.4412 172.793 96.4017 172.799 96.3618 172.799ZM83.6761 213.443C84.1292 209.922 81.812 206.725 82.3481 204.426C83.2134 200.713 87.2692 201.244 92.9958 190.749C89.9617 197.948 83.6761 213.443 83.6761 213.443Z" fill="#242D35"/>
<path d="M83.6763 213.745C83.6291 213.745 83.5825 213.736 83.5394 213.718C83.4964 213.701 83.4579 213.676 83.4266 213.644C83.3952 213.612 83.3716 213.575 83.3574 213.534C83.3432 213.493 83.3387 213.451 83.3441 213.408C83.5748 211.614 83.0502 209.863 82.5875 208.318C82.1568 206.882 81.7501 205.524 82.0208 204.363C82.4076 202.703 83.4143 201.831 84.8079 200.623C86.6426 199.032 89.4152 196.628 92.6958 190.616C92.7339 190.546 92.8001 190.493 92.8808 190.466C92.9614 190.44 93.0503 190.442 93.129 190.473C93.2077 190.504 93.2702 190.561 93.3035 190.632C93.3369 190.704 93.3386 190.784 93.3082 190.856C90.3096 197.971 84.0531 213.392 83.9903 213.547C83.9667 213.605 83.924 213.655 83.8679 213.69C83.8118 213.726 83.745 213.745 83.6765 213.745H83.6763ZM91.0044 194.666C88.6706 198.111 86.694 199.824 85.2711 201.058C83.9154 202.233 83.0195 203.01 82.6751 204.488C82.4375 205.507 82.8062 206.737 83.233 208.161C83.5594 209.251 83.9159 210.44 84.0312 211.693C85.3907 208.349 88.5541 200.581 91.0044 194.666ZM67.5788 238.616C67.5261 238.616 67.4742 238.605 67.4272 238.583C67.3803 238.561 67.3397 238.53 67.3087 238.492C67.2777 238.453 67.2572 238.409 67.2489 238.362C67.2405 238.315 67.2445 238.267 67.2606 238.221L87.9321 180.492C87.9593 180.415 88.019 180.352 88.098 180.316C88.1371 180.298 88.1798 180.287 88.2236 180.284C88.2673 180.28 88.3114 180.285 88.3532 180.297C88.395 180.309 88.4337 180.329 88.4671 180.355C88.5005 180.38 88.528 180.412 88.548 180.447C88.568 180.482 88.5801 180.521 88.5836 180.56C88.5871 180.6 88.582 180.64 88.5685 180.677L67.8971 238.407C67.8753 238.468 67.8328 238.521 67.7757 238.558C67.7185 238.596 67.6495 238.616 67.5788 238.616ZM129.986 204.498C129.94 204.498 129.894 204.489 129.852 204.473C129.81 204.456 129.772 204.431 129.74 204.401C129.709 204.37 129.685 204.334 129.67 204.295C129.655 204.256 129.649 204.214 129.652 204.172L131.091 187.644C131.099 187.565 131.14 187.491 131.208 187.439C131.275 187.387 131.362 187.361 131.451 187.367C131.494 187.37 131.537 187.381 131.576 187.399C131.615 187.417 131.65 187.442 131.679 187.472C131.707 187.502 131.729 187.537 131.743 187.575C131.756 187.612 131.761 187.652 131.758 187.692L130.319 204.22C130.312 204.295 130.274 204.366 130.213 204.417C130.151 204.469 130.07 204.498 129.986 204.498ZM128.023 177.633C131.381 177.83 133.169 179.246 132.995 181.175C132.82 183.103 128.285 189.99 127.228 194.16C127.674 186.999 128.11 181.726 128.023 177.633V177.633Z" fill="#242D35"/>
<path d="M127.228 194.462C127.182 194.462 127.137 194.454 127.096 194.437C127.054 194.421 127.016 194.397 126.985 194.368C126.954 194.338 126.929 194.302 126.914 194.264C126.898 194.225 126.891 194.184 126.894 194.143C126.984 192.693 127.074 191.32 127.16 190.018C127.494 184.919 127.758 180.891 127.689 177.639C127.688 177.597 127.697 177.555 127.714 177.517C127.732 177.478 127.759 177.443 127.792 177.415C127.826 177.386 127.865 177.364 127.909 177.349C127.952 177.335 127.999 177.329 128.045 177.332C130.084 177.451 131.636 178.009 132.531 178.944C133.129 179.57 133.405 180.349 133.328 181.199C133.242 182.147 132.264 184.03 131.026 186.414C129.661 189.042 128.113 192.021 127.554 194.227C127.537 194.294 127.495 194.353 127.436 194.396C127.377 194.439 127.304 194.462 127.228 194.462L127.228 194.462ZM128.363 177.96C128.409 181.176 128.151 185.113 127.827 190.054C127.792 190.599 127.755 191.156 127.718 191.726C128.458 189.936 129.482 187.965 130.42 186.158C131.534 184.014 132.586 181.989 132.662 181.15C132.724 180.456 132.51 179.846 132.024 179.339C131.3 178.582 130.039 178.108 128.363 177.96ZM133.126 178.23C133.057 178.23 132.991 178.211 132.934 178.176C132.878 178.14 132.835 178.091 132.812 178.033C132.788 177.975 132.785 177.912 132.802 177.852C132.819 177.792 132.857 177.739 132.909 177.699C133.218 177.461 133.229 177.358 133.229 177.357C133.199 177.31 132.968 177.21 132.845 177.157C132.555 177.032 132.226 176.89 132.175 176.587C132.126 176.297 132.379 176.085 132.462 176.015C132.777 175.751 132.814 175.546 132.762 175.472C132.708 175.396 132.481 175.329 132.098 175.472C131.63 175.646 131.132 175.572 130.857 175.286C130.61 175.03 130.601 174.666 130.832 174.312C130.876 174.244 130.923 174.151 130.892 174.095C130.824 173.97 130.486 173.793 129.271 173.664L113.672 172.622C113.629 172.619 113.586 172.608 113.547 172.59C113.508 172.572 113.473 172.548 113.444 172.518C113.415 172.488 113.393 172.453 113.38 172.415C113.366 172.378 113.36 172.338 113.364 172.299C113.367 172.259 113.379 172.22 113.399 172.185C113.418 172.15 113.446 172.118 113.479 172.092C113.512 172.066 113.551 172.047 113.592 172.034C113.634 172.022 113.678 172.017 113.722 172.02L129.334 173.063C130.448 173.181 131.232 173.356 131.492 173.827C131.582 173.991 131.641 174.262 131.407 174.619C131.37 174.676 131.291 174.817 131.362 174.891C131.432 174.963 131.624 174.996 131.842 174.915C132.476 174.679 133.057 174.77 133.325 175.147C133.534 175.44 133.536 175.939 132.917 176.457C132.903 176.469 132.89 176.481 132.877 176.493C132.948 176.533 133.058 176.58 133.133 176.612C133.448 176.748 133.84 176.917 133.893 177.283C133.945 177.647 133.604 177.957 133.343 178.158C133.282 178.205 133.205 178.23 133.126 178.23L133.126 178.23Z" fill="#242D35"/>
<path d="M92.3711 169.25C87.9008 171.297 81.4462 172.242 77.195 171.021C76.9275 168.6 76.4527 166.085 75.7573 163.531V163.528C74.6506 159.47 72.9855 155.319 70.6986 151.311C68.4367 147.342 65.568 143.513 62.0306 140.053C61.7063 139.735 61.3753 139.419 61.0376 139.107C63.3479 137.531 66.1698 136.099 68.7878 134.992C70.0249 134.468 71.2168 134.017 72.2884 133.657C75.9713 135.816 80.4047 140.317 84.2063 146.432C88.0596 152.634 91.2627 160.493 92.3711 169.25Z" fill="url(#paint10_linear_0_2342)"/>
<path d="M68.7878 134.992C68.2495 135.917 67.3585 136.807 66.6563 137.359C65.8572 137.989 64.794 138.258 63.8712 138.73C63.1808 139.084 62.584 139.543 62.0306 140.053C61.7063 139.735 61.3753 139.419 61.0376 139.107C63.3479 137.531 66.1698 136.099 68.7878 134.992Z" fill="white"/>
<path d="M81.5913 171.862C79.9378 171.862 78.3961 171.683 77.094 171.309C77.0317 171.291 76.9767 171.257 76.9355 171.211C76.8944 171.165 76.8691 171.11 76.8626 171.051C76.5915 168.597 76.1103 166.092 75.4328 163.603C75.4309 163.597 75.4294 163.59 75.4283 163.583C74.2731 159.353 72.5819 155.27 70.4017 151.449C67.8125 146.904 64.5815 142.823 60.7985 139.318C60.7654 139.287 60.7399 139.25 60.7237 139.21C60.7075 139.17 60.701 139.127 60.7046 139.084C60.7081 139.042 60.7217 139 60.7444 138.963C60.7672 138.925 60.7985 138.892 60.8363 138.866C64.4182 136.422 69.0405 134.427 72.172 133.374C72.221 133.358 72.2735 133.352 72.3254 133.357C72.3773 133.362 72.4271 133.378 72.4709 133.404C76.4905 135.76 80.8743 140.455 84.4981 146.285C87.5362 151.174 91.4257 159.121 92.7037 169.216C92.7114 169.277 92.6982 169.339 92.6659 169.393C92.6336 169.448 92.5836 169.492 92.5228 169.519C89.221 171.031 85.1488 171.862 81.5913 171.862V171.862ZM77.5056 170.791C81.4081 171.826 87.4242 171.115 92.0123 169.075C90.7202 159.179 86.9018 151.387 83.9149 146.58C80.4371 140.985 76.0868 136.295 72.2469 133.993C69.253 135.014 64.9606 136.872 61.5423 139.144C65.2579 142.636 68.4372 146.682 70.9961 151.173C73.2032 155.041 74.9144 159.174 76.0822 163.457C76.0841 163.463 76.0858 163.47 76.0869 163.477C76.7511 165.919 77.2281 168.379 77.5054 170.792L77.5056 170.791Z" fill="#242D35"/>
<path d="M84.2064 146.432L84.2048 146.434L74.4468 143.633L75.1021 138.733L70.1304 137.434L72.2886 133.657C75.9714 135.816 80.4049 140.317 84.2064 146.432Z" fill="url(#paint11_linear_0_2342)"/>
<path d="M84.2048 146.736C84.1709 146.736 84.1368 146.731 84.1035 146.721L74.3456 143.92C74.2714 143.899 74.2078 143.855 74.1657 143.796C74.1236 143.737 74.1057 143.666 74.115 143.596L74.7362 138.951L70.0376 137.724C69.9902 137.711 69.9464 137.69 69.9094 137.66C69.8724 137.631 69.8431 137.594 69.8236 137.553C69.8041 137.512 69.7948 137.468 69.7966 137.424C69.7984 137.379 69.811 137.335 69.8337 137.296L71.9917 133.518C72.0132 133.481 72.0431 133.448 72.0795 133.422C72.116 133.395 72.1581 133.376 72.2033 133.365C72.2484 133.354 72.2956 133.352 72.3418 133.359C72.3879 133.365 72.432 133.381 72.4712 133.404C76.4907 135.76 80.8745 140.455 84.4984 146.285C84.5341 146.342 84.548 146.408 84.538 146.474C84.5281 146.539 84.4948 146.599 84.4432 146.646L84.4415 146.647C84.3789 146.704 84.2938 146.736 84.2052 146.736H84.2048ZM74.8118 143.421L83.4933 145.913C80.1413 140.694 76.0588 136.337 72.4145 134.095L70.6139 137.246L75.1951 138.443C75.2713 138.463 75.3372 138.507 75.3809 138.566C75.4247 138.626 75.4435 138.698 75.434 138.769L74.8118 143.421ZM75.7575 163.528C74.6508 159.47 72.9858 155.319 70.6988 151.311C70.7055 151.297 70.7105 151.285 70.7172 151.273C72.419 150.569 74.8732 150.214 76.2457 152.094C77.4543 153.752 74.8414 159.332 75.7575 163.528Z" fill="#242D35"/>
<path d="M75.7569 163.83C75.6822 163.83 75.6097 163.807 75.5509 163.766C75.4921 163.724 75.4505 163.666 75.4326 163.601C74.2775 159.364 72.5846 155.276 70.4013 151.449C70.3784 151.409 70.3658 151.365 70.3644 151.32C70.363 151.274 70.3728 151.23 70.3932 151.188C70.404 151.165 70.4105 151.152 70.4179 151.139C70.452 151.077 70.5083 151.028 70.5776 150.999C71.5266 150.606 74.7604 149.512 76.5244 151.928C77.1846 152.833 76.87 154.557 76.4719 156.738C76.0757 158.909 75.6265 161.369 76.0853 163.47C76.0948 163.514 76.0935 163.559 76.0814 163.602C76.0693 163.646 76.0468 163.686 76.0154 163.72C75.984 163.755 75.9445 163.782 75.8998 163.801C75.8551 163.821 75.8064 163.83 75.7569 163.83ZM71.1443 151.435C72.806 154.386 74.1802 157.489 75.2461 160.693C75.3228 159.321 75.5767 157.931 75.8123 156.64C76.157 154.752 76.4825 152.968 75.9661 152.26C74.6514 150.459 72.3341 150.996 71.1443 151.435Z" fill="#242D35"/>
<path d="M137.508 140.149C134.432 142.417 124.572 148.16 113.714 147.986C110.713 147.939 107.636 147.439 104.605 146.289L104.608 146.292C106.731 149.303 108.987 155.912 109.837 159.335C110.254 161.011 110.145 161.56 109.15 162.581C107.973 163.791 105.389 164.972 102.871 165.414C101.126 155.627 98.1236 148.307 93.8155 142.58C90.5372 138.222 86.5016 134.785 81.687 131.886C92.3293 129.705 101.313 133.69 108.86 134.763C108.941 134.775 109.023 134.785 109.105 134.796C110.255 134.95 111.37 135.034 112.454 135.014C115.605 134.957 118.489 134.649 121.026 134.23C121.036 134.229 121.048 134.226 121.058 134.224C126.46 133.329 130.285 131.936 131.752 131.414C133.125 133.361 137.508 140.149 137.508 140.149Z" fill="url(#paint12_linear_0_2342)"/>
<path d="M102.871 165.716C102.792 165.716 102.715 165.69 102.654 165.644C102.594 165.597 102.554 165.533 102.541 165.462C100.851 155.986 97.9063 148.557 93.5385 142.749C90.4261 138.612 86.4886 135.141 81.5011 132.137C81.4468 132.104 81.4043 132.058 81.3789 132.004C81.3535 131.949 81.3462 131.889 81.3581 131.831C81.37 131.773 81.4004 131.72 81.4456 131.677C81.4909 131.635 81.5489 131.605 81.6126 131.592C89.3399 130.008 96.185 131.638 102.225 133.075C104.58 133.636 106.804 134.165 108.911 134.465C108.993 134.477 109.073 134.487 109.152 134.498C110.373 134.661 111.45 134.733 112.447 134.713C115.281 134.662 118.147 134.399 120.966 133.934C120.979 133.931 120.992 133.928 121.005 133.927C126.21 133.064 129.913 131.745 131.495 131.181L131.629 131.133C131.702 131.108 131.781 131.105 131.855 131.127C131.929 131.149 131.992 131.193 132.034 131.252C133.394 133.182 137.753 139.93 137.797 139.998C137.837 140.06 137.851 140.133 137.837 140.204C137.823 140.274 137.781 140.338 137.719 140.384C137.276 140.71 126.842 148.292 114.21 148.292C114.042 148.292 113.876 148.291 113.708 148.288C110.799 148.243 108.004 147.774 105.386 146.894C107.352 150.141 109.355 156.018 110.163 159.269C110.602 161.037 110.46 161.694 109.401 162.781C108.161 164.055 105.502 165.26 102.935 165.711C102.914 165.714 102.892 165.716 102.871 165.716L102.871 165.716ZM82.5242 132.034C87.2778 134.989 91.0672 138.389 94.0919 142.41C98.4675 148.228 101.43 155.638 103.145 165.054C105.441 164.589 107.819 163.492 108.899 162.382C109.815 161.441 109.907 160.995 109.511 159.401C108.645 155.918 106.4 149.398 104.329 146.458C104.291 146.407 104.272 146.347 104.273 146.286C104.273 146.226 104.295 146.166 104.333 146.116C104.377 146.06 104.44 146.019 104.513 146C104.586 145.98 104.664 145.984 104.734 146.011C107.532 147.072 110.555 147.635 113.72 147.684C123.626 147.841 133.181 142.87 137.074 140.077C136.333 138.931 132.951 133.711 131.617 131.786C129.953 132.378 126.263 133.669 121.118 134.521L121.084 134.527C118.232 134.998 115.33 135.264 112.46 135.316C111.425 135.333 110.312 135.262 109.056 135.094C108.972 135.083 108.888 135.072 108.805 135.06C106.666 134.756 104.426 134.223 102.054 133.658C96.2895 132.286 89.7818 130.737 82.5239 132.034L82.5242 132.034Z" fill="#242D35"/>
<path d="M94.0947 137.336L93.8155 142.58C90.5372 138.222 86.5016 134.785 81.687 131.886C82.0147 131.905 87.4646 132.928 87.4646 132.928L87.3776 134.503L94.0947 137.336Z" fill="url(#paint13_linear_0_2342)"/>
<path d="M93.8156 142.881C93.761 142.881 93.7073 142.869 93.6591 142.846C93.6109 142.823 93.5697 142.79 93.5391 142.749C90.4264 138.612 86.489 135.14 81.5015 132.137C81.4402 132.1 81.3941 132.046 81.3704 131.983C81.3466 131.92 81.3466 131.852 81.3703 131.789C81.3939 131.726 81.44 131.672 81.5013 131.635C81.5626 131.598 81.6356 131.58 81.7091 131.585C82.0432 131.605 86.6187 132.461 87.5327 132.633C87.694 132.663 87.8068 132.794 87.7985 132.943L87.7229 134.315L94.2363 137.063C94.2964 137.088 94.3468 137.129 94.381 137.18C94.4153 137.231 94.4319 137.291 94.4288 137.35L94.1496 142.594C94.1454 142.671 94.1084 142.744 94.0462 142.798C93.984 142.851 93.9014 142.881 93.8156 142.881ZM83.1744 132.444C87.3399 135.12 90.7439 138.156 93.5289 141.68L93.75 137.524L87.2363 134.776C87.1761 134.751 87.1257 134.71 87.0915 134.659C87.0572 134.607 87.0407 134.548 87.044 134.488L87.1166 133.171C85.8035 132.925 84.4895 132.683 83.1746 132.445L83.1744 132.444ZM113.714 147.986C110.714 147.939 107.636 147.439 104.605 146.289C103.309 144.221 102.188 142.412 101.447 141.221C100.979 140.468 100.063 138.229 103.426 138.753C105.956 139.146 106.619 141.552 106.872 142.728C107.439 145.363 109.836 147.107 113.714 147.986Z" fill="#242D35"/>
<path d="M113.714 148.288H113.709C110.459 148.237 107.352 147.658 104.475 146.567C104.407 146.541 104.35 146.496 104.314 146.438C103.22 144.692 102.251 143.131 101.529 141.97L101.155 141.368C100.997 141.114 100.242 139.803 100.9 138.963C101.321 138.425 102.191 138.254 103.483 138.456C105.413 138.756 106.664 140.174 107.2 142.67C107.729 145.131 109.949 146.821 113.796 147.694C113.875 147.712 113.944 147.755 113.991 147.816C114.037 147.876 114.057 147.95 114.047 148.023C114.037 148.097 113.998 148.164 113.936 148.213C113.875 148.261 113.796 148.288 113.715 148.288L113.714 148.288ZM104.84 146.051C106.844 146.8 108.963 147.296 111.166 147.53C108.55 146.49 106.998 144.9 106.544 142.785C106.059 140.529 105.021 139.307 103.37 139.05C102.367 138.894 101.702 138.984 101.446 139.311C101.092 139.763 101.482 140.661 101.739 141.073L102.113 141.675C103.019 143.135 103.928 144.593 104.84 146.051H104.84ZM120.456 137.338C121.286 138.998 117.282 139.309 115.187 137.599C113.953 136.589 111.093 135.099 109.105 134.796C110.255 134.95 111.371 135.034 112.454 135.014C115.605 134.957 118.489 134.649 121.026 134.23C118.882 134.642 119.816 136.054 120.456 137.338Z" fill="#242D35"/>
<path d="M118.626 139.038C117.415 139.038 115.967 138.643 114.963 137.822C113.816 136.884 111.012 135.393 109.05 135.093C108.964 135.079 108.887 135.036 108.836 134.971C108.785 134.907 108.764 134.827 108.778 134.749C108.792 134.671 108.839 134.601 108.909 134.554C108.98 134.507 109.068 134.486 109.154 134.497C110.373 134.66 111.451 134.731 112.447 134.713C115.282 134.661 118.148 134.399 120.966 133.933C121.053 133.919 121.142 133.936 121.214 133.981C121.287 134.025 121.337 134.094 121.354 134.172C121.371 134.249 121.354 134.33 121.306 134.396C121.257 134.462 121.182 134.509 121.096 134.525C120.566 134.627 120.231 134.797 120.102 135.031C119.863 135.461 120.237 136.19 120.599 136.894C120.654 137.001 120.709 137.108 120.761 137.214C121.041 137.773 120.902 138.29 120.381 138.632C119.971 138.901 119.34 139.038 118.626 139.038H118.626ZM111.819 135.316C113.287 135.943 114.68 136.777 115.412 137.375C116.826 138.529 119.192 138.667 119.987 138.144C120.25 137.971 120.301 137.761 120.152 137.462C120.1 137.358 120.046 137.253 119.992 137.148C119.565 136.316 119.124 135.456 119.5 134.767C117.17 135.089 114.818 135.272 112.461 135.316C112.247 135.32 112.033 135.32 111.819 135.316L111.819 135.316ZM142.633 128.98C142.551 128.98 142.472 128.953 142.411 128.904C142.35 128.855 142.311 128.787 142.301 128.714C142.292 128.64 142.312 128.566 142.359 128.506C142.406 128.445 142.476 128.402 142.555 128.385C142.856 128.321 144.35 127.936 144.305 126.701C144.302 126.629 144.329 126.558 144.379 126.502C144.429 126.445 144.501 126.407 144.579 126.394C145.652 126.219 146.696 125.744 147.144 125.491C147.181 125.47 147.223 125.456 147.266 125.449C147.309 125.443 147.354 125.444 147.396 125.453C147.439 125.462 147.48 125.478 147.515 125.501C147.551 125.524 147.581 125.553 147.605 125.587C147.628 125.62 147.644 125.658 147.651 125.697C147.658 125.736 147.657 125.776 147.647 125.815C147.637 125.853 147.619 125.89 147.594 125.922C147.568 125.954 147.536 125.982 147.498 126.003C147.047 126.257 146.041 126.718 144.966 126.939C144.857 128.099 143.713 128.757 142.711 128.972C142.685 128.978 142.659 128.98 142.633 128.98L142.633 128.98Z" fill="#242D35"/>
<path d="M144.394 128.849C144.115 128.849 143.841 128.776 143.699 128.571C143.539 128.34 143.606 128.052 143.899 127.715C143.926 127.683 143.96 127.657 143.998 127.637C144.036 127.618 144.078 127.605 144.122 127.6C144.166 127.595 144.21 127.598 144.253 127.609C144.295 127.62 144.335 127.638 144.369 127.662C144.404 127.687 144.433 127.717 144.455 127.752C144.476 127.787 144.49 127.825 144.495 127.864C144.5 127.904 144.497 127.944 144.485 127.982C144.473 128.02 144.452 128.056 144.425 128.087C144.382 128.135 144.344 128.186 144.312 128.241C144.405 128.249 144.499 128.244 144.591 128.226C145.479 128.054 147.334 127.288 147.943 126.668C148.002 126.61 148.085 126.574 148.172 126.57C148.26 126.566 148.346 126.593 148.412 126.646C148.478 126.698 148.518 126.772 148.524 126.851C148.53 126.93 148.501 127.008 148.444 127.068C147.719 127.806 145.723 128.624 144.731 128.816C144.62 128.838 144.507 128.849 144.394 128.849Z" fill="#242D35"/>
<path d="M145.077 129.772C144.657 129.772 144.18 129.605 144.019 129.257C143.935 129.075 143.879 128.707 144.449 128.287C144.518 128.237 144.606 128.214 144.694 128.222C144.782 128.23 144.863 128.269 144.918 128.331C144.974 128.393 145.001 128.472 144.992 128.552C144.983 128.631 144.94 128.704 144.872 128.755C144.653 128.916 144.631 129.013 144.637 129.024C144.665 129.087 144.901 129.191 145.149 129.165C146.497 129.036 148.171 128.327 148.712 127.804C148.772 127.745 148.856 127.711 148.944 127.708C149.033 127.705 149.119 127.734 149.184 127.789C149.249 127.843 149.287 127.919 149.291 127.999C149.294 128.079 149.262 128.156 149.201 128.215C148.568 128.829 146.777 129.616 145.219 129.765C145.172 129.77 145.125 129.772 145.077 129.772Z" fill="#242D35"/>
<path d="M146.227 130.821C145.423 130.821 144.679 130.543 144.481 130.094C144.423 129.962 144.292 129.507 145.043 129.192C145.083 129.175 145.126 129.166 145.17 129.164C145.214 129.163 145.258 129.169 145.299 129.182C145.34 129.196 145.378 129.217 145.41 129.243C145.443 129.27 145.469 129.302 145.487 129.338C145.506 129.374 145.516 129.413 145.518 129.453C145.52 129.492 145.513 129.532 145.498 129.569C145.483 129.606 145.46 129.641 145.431 129.67C145.401 129.699 145.365 129.723 145.325 129.739C145.132 129.82 145.101 129.883 145.101 129.883C145.106 129.887 145.156 129.954 145.312 130.031C145.662 130.204 146.327 130.304 146.96 130.114C147.043 130.09 147.134 130.097 147.213 130.133C147.291 130.169 147.35 130.231 147.378 130.307C147.406 130.382 147.4 130.464 147.361 130.535C147.322 130.606 147.254 130.661 147.171 130.687C146.866 130.778 146.542 130.821 146.227 130.821L146.227 130.821Z" fill="#242D35"/>
<path d="M71.6999 132.417L71.5063 133.928L76.3118 137.7L79.8116 133.273L71.6999 132.417Z" fill="white"/>
<path d="M76.3117 138.002C76.2316 138.002 76.1536 137.976 76.0922 137.928L71.2868 134.156C71.2458 134.124 71.2141 134.083 71.1945 134.038C71.1748 133.992 71.1678 133.942 71.1741 133.894L71.3677 132.382C71.3779 132.303 71.4227 132.23 71.4922 132.18C71.5616 132.131 71.6495 132.108 71.7387 132.117L79.8501 132.973C79.9079 132.979 79.9629 132.999 80.0097 133.03C80.0565 133.061 80.0935 133.103 80.1171 133.151C80.1407 133.199 80.15 133.251 80.1441 133.303C80.1382 133.356 80.1173 133.406 80.0835 133.448L76.5837 137.875C76.5528 137.915 76.512 137.946 76.4646 137.968C76.4173 137.99 76.3648 138.002 76.3115 138.002L76.3117 138.002ZM71.8585 133.805L76.2532 137.254L79.2105 133.513L71.9934 132.752L71.8583 133.805L71.8585 133.805Z" fill="#242D35"/>
<path d="M80.6848 130.764L79.8115 133.273L84.7178 134.04L83.3111 131.62L80.6848 130.764Z" fill="white"/>
<path d="M84.7178 134.342C84.6989 134.342 84.6797 134.34 84.6607 134.338L79.7544 133.57C79.7075 133.563 79.6628 133.547 79.6235 133.522C79.5841 133.498 79.5509 133.467 79.5261 133.43C79.5013 133.393 79.4855 133.352 79.4797 133.309C79.474 133.267 79.4784 133.223 79.4926 133.182L80.3661 130.674C80.3934 130.595 80.4551 130.53 80.5368 130.494C80.5772 130.476 80.6212 130.465 80.6663 130.463C80.7113 130.46 80.7564 130.466 80.7988 130.48L83.4251 131.336C83.5037 131.362 83.5687 131.413 83.6076 131.48L85.0141 133.9C85.0408 133.946 85.0539 133.998 85.0521 134.049C85.0503 134.101 85.0338 134.152 85.004 134.196C84.9742 134.241 84.9323 134.277 84.8822 134.303C84.8321 134.328 84.7755 134.342 84.718 134.342L84.7178 134.342ZM80.2451 133.035L84.1068 133.639L83.0757 131.864L80.8996 131.155L80.2451 133.035ZM69.2798 124.94C70.3037 124.27 69.7775 122.759 68.4205 122.444C66.9813 122.11 66.0781 120.639 67.4481 119.352C68.5165 118.349 70.3699 119.195 71.1249 121.02C72.0226 123.19 72.71 122.449 72.3789 121.225C71.7657 118.959 70.3577 117.587 72.2453 116.479C73.9898 115.456 78.8239 115.412 78.6561 111.875C78.5252 109.12 76.3011 108.373 73.6845 108.373C71.0679 108.373 64.0029 110.695 64.7007 116.322C60.6886 121.635 67.5355 126.082 69.2798 124.94V124.94Z" fill="#242D35"/>
<path d="M68.5581 125.423C67.6012 125.423 66.3365 124.87 65.238 123.907C63.3168 122.223 62.0894 119.334 64.3555 116.244C64.152 114.356 64.7637 112.677 66.1748 111.253C68.3503 109.058 71.8758 108.071 73.6841 108.071C77.0853 108.071 78.8705 109.347 78.9897 111.862C79.1225 114.655 76.3465 115.462 74.3197 116.051C73.574 116.268 72.8695 116.473 72.4271 116.732C71.3133 117.386 71.5251 118.049 72.1102 119.487C72.3094 119.977 72.5355 120.533 72.7035 121.153C72.9175 121.944 72.7598 122.559 72.311 122.684C71.7935 122.826 71.3042 122.317 70.8112 121.126C70.4032 120.139 69.6184 119.404 68.8122 119.253C68.5097 119.196 68.0692 119.204 67.6889 119.561C67.1841 120.036 67.0007 120.551 67.1583 121.052C67.3206 121.568 67.8487 122 68.5036 122.152C69.3302 122.344 69.9637 122.94 70.1171 123.67C70.244 124.273 70.0041 124.839 69.4755 125.185C69.2289 125.346 68.9148 125.423 68.5579 125.423L68.5581 125.423ZM73.6841 108.674C72.0483 108.674 68.6888 109.622 66.6732 111.656C65.367 112.974 64.815 114.532 65.0327 116.288C65.0417 116.36 65.0218 116.432 64.9767 116.492C62.3012 120.035 64.8568 122.732 65.7039 123.474C67.0254 124.632 68.5459 125.048 69.0833 124.696C69.4013 124.488 69.5389 124.155 69.4605 123.782C69.355 123.281 68.914 122.871 68.3369 122.736C67.4427 122.528 66.7447 121.946 66.5154 121.217C66.2923 120.508 66.5379 119.771 67.207 119.143C67.6689 118.71 68.2869 118.538 68.9481 118.662C69.9897 118.857 70.9438 119.72 71.4381 120.915C71.7491 121.667 71.986 121.948 72.102 122.05C72.1361 121.924 72.1546 121.668 72.054 121.296C71.8952 120.709 71.676 120.17 71.4828 119.695C70.9313 118.34 70.4553 117.17 72.0632 116.227C72.5804 115.923 73.3259 115.707 74.1151 115.477C76.1389 114.889 78.4329 114.222 78.322 111.888C78.2179 109.696 76.7442 108.675 73.6845 108.675L73.6841 108.674Z" fill="#242D35"/>
<path d="M73.1829 167.105C74.9382 167.046 79.3371 166.185 80.793 165.807C82.4938 165.364 83.9003 166.161 81.4799 166.928C79.2794 167.626 78.2417 167.961 78.5361 168.463C78.8305 168.965 83.0567 168.444 84.0638 168.286C85.4374 168.069 86.2225 168.66 85.2739 169.319C86.506 169.643 86.1788 170.47 84.5544 171.001C81.8405 171.889 78.111 171.68 77.9801 172.329C77.8492 172.978 80.2861 173.432 81.4471 173.618C82.9189 173.854 82.6934 174.935 81.2509 174.857C77.4241 174.651 73.3029 172.388 71.4712 173.244C71.5693 171.001 72.0817 168.079 73.1829 167.105V167.105Z" fill="url(#paint14_linear_0_2342)"/>
<path d="M81.3958 175.163C81.3425 175.163 81.2875 175.162 81.2308 175.159C79.4908 175.065 77.6924 174.556 76.1057 174.107C74.2621 173.586 72.5202 173.093 71.6248 173.512C71.5728 173.537 71.5147 173.548 71.4562 173.546C71.3978 173.543 71.341 173.527 71.2916 173.499C71.2422 173.471 71.202 173.431 71.1748 173.384C71.1477 173.337 71.1346 173.285 71.137 173.232C71.1729 172.409 71.4295 168.233 72.9485 166.89C73.0079 166.837 73.087 166.806 73.1702 166.804C74.8546 166.747 79.1784 165.913 80.7 165.517C81.8266 165.223 82.895 165.412 83.0809 165.938C83.1974 166.267 83.0336 166.755 81.5904 167.213C80.2869 167.626 78.94 168.053 78.8248 168.295C79.3252 168.508 82.2676 168.262 84.0059 167.989C84.9707 167.837 85.7393 168.036 85.9637 168.496C86.0229 168.617 86.1001 168.888 85.8527 169.213C86.2663 169.436 86.3487 169.719 86.3547 169.892C86.3732 170.421 85.7587 170.928 84.6681 171.285C83.2984 171.733 81.694 171.907 80.405 172.047C79.5758 172.137 78.5533 172.248 78.3196 172.399C78.3855 172.484 78.8237 172.891 81.5053 173.321C82.5241 173.484 82.8265 173.99 82.7763 174.374C82.7248 174.765 82.2716 175.163 81.3958 175.163V175.163ZM72.498 172.751C73.5453 172.751 74.8559 173.122 76.3057 173.532C77.8556 173.97 79.6124 174.467 81.2704 174.557C81.8373 174.586 82.0984 174.406 82.1121 174.303C82.1262 174.195 81.9058 173.998 81.3881 173.915C78.2952 173.419 77.9015 172.908 77.7721 172.74C77.6606 172.595 77.6185 172.435 77.6506 172.275C77.7613 171.726 78.6717 171.627 80.3249 171.448C81.5802 171.312 83.1424 171.142 84.4399 170.718C85.3578 170.417 85.6913 170.064 85.686 169.911C85.683 169.826 85.5253 169.7 85.1796 169.608C85.1203 169.593 85.067 169.563 85.0255 169.521C84.9841 169.48 84.9561 169.429 84.9446 169.375C84.9332 169.32 84.9388 169.263 84.9608 169.211C84.9828 169.159 85.0204 169.114 85.0693 169.08C85.3134 168.91 85.3719 168.781 85.3515 168.739C85.298 168.629 84.869 168.465 84.1207 168.583C83.5779 168.668 82.2666 168.837 81.0588 168.923C78.728 169.089 78.382 168.846 78.2404 168.604C78.1133 168.387 78.1473 168.202 78.1981 168.085C78.4092 167.599 79.2695 167.309 81.3687 166.644C82.1849 166.385 82.386 166.175 82.4303 166.112C82.2964 166.006 81.6879 165.888 80.8856 166.097C79.3772 166.489 75.1493 167.306 73.3327 167.401C72.4735 168.279 71.972 170.654 71.8296 172.812C72.0381 172.77 72.2614 172.751 72.4981 172.751L72.498 172.751Z" fill="#242D35"/>
<path d="M68.9525 166.536C70.7187 167.008 73.1826 167.105 73.1826 167.105L71.5415 175.576L65.1802 174.524L68.9525 166.536Z" fill="white"/>
<path d="M71.5416 175.877C71.5216 175.877 71.5015 175.876 71.4815 175.872L65.12 174.821C65.0706 174.813 65.0239 174.795 64.9833 174.768C64.9427 174.742 64.9092 174.707 64.8855 174.667C64.8617 174.627 64.8482 174.583 64.846 174.538C64.8438 174.493 64.8529 174.448 64.8727 174.406L68.645 166.417C68.6771 166.349 68.7359 166.294 68.8102 166.263C68.8844 166.231 68.9689 166.225 69.0476 166.246C70.7529 166.702 73.1731 166.803 73.1973 166.804C73.2448 166.806 73.2913 166.817 73.3337 166.836C73.3761 166.855 73.4134 166.883 73.4432 166.916C73.4729 166.95 73.4945 166.988 73.5063 167.03C73.5182 167.071 73.5201 167.115 73.512 167.157L71.871 175.628C71.8556 175.707 71.8058 175.777 71.7327 175.823C71.6766 175.858 71.6099 175.877 71.5416 175.877V175.877ZM65.6518 174.295L71.2703 175.224L72.7888 167.387C72.0729 167.343 70.4823 167.215 69.1452 166.897L65.6518 174.295Z" fill="#242D35"/>
<path d="M67.3784 165.992C67.8749 166.197 68.4015 166.379 68.9532 166.535C68.9532 166.535 67.5138 173.56 66.5977 177.278C64.722 177.278 60.643 176.268 56.6709 174.103C51.6373 171.364 46.7759 166.772 46.7759 160.042C46.7759 148.001 59.4009 139.649 64.6568 136.947L65.2871 138.113L72.1579 150.834C70.742 151.214 69.4698 151.702 68.3464 152.261C64.2239 154.316 62.084 157.374 62.084 159.925C62.084 162.282 64.1052 164.639 67.3784 165.99V165.992Z" fill="url(#paint15_linear_0_2342)"/>
<path d="M65.2871 138.113C64.8123 138.315 64.3258 138.498 63.8711 138.73C61.3368 140.029 60.0545 142.752 57.6054 144.176C56.7796 144.655 55.8233 144.986 55.1563 145.636C54.5879 146.187 54.287 146.912 53.8724 147.565C53.0834 148.804 51.8814 149.784 50.9887 150.964C49.6379 152.746 49.0494 154.895 48.4844 156.992C48.0698 158.537 47.6519 160.145 48.0197 161.699C48.3841 163.237 49.4858 164.572 49.8302 166.114C49.9305 166.56 49.9789 167.046 50.2966 167.399C50.5507 167.68 50.9335 167.831 51.2879 167.998C53.8908 169.226 55.4037 171.674 56.6709 174.103C51.6373 171.364 46.7759 166.772 46.7759 160.042C46.7759 148.001 59.4009 139.649 64.6568 136.947L65.2871 138.113Z" fill="white"/>
<path d="M66.5978 177.58C64.4638 177.58 59.4238 176.29 54.8998 173.423C51.041 170.978 46.4414 166.671 46.4414 160.042C46.4414 154.748 48.8141 149.618 53.4937 144.794C57.7822 140.373 62.6133 137.65 64.4912 136.685C64.568 136.648 64.6576 136.64 64.7409 136.662C64.8242 136.684 64.8948 136.734 64.9378 136.802C64.9808 136.871 64.9928 136.951 64.9712 137.027C64.9497 137.103 64.8963 137.168 64.8224 137.209C63.0094 138.141 47.1103 146.699 47.1103 160.042C47.1103 166.412 51.5553 170.566 55.2843 172.929C59.5076 175.606 64.1518 176.871 66.331 176.97C67.1354 173.662 68.308 168.015 68.5709 166.74C68.1182 166.603 67.6737 166.445 67.2394 166.266C67.2292 166.262 67.2192 166.257 67.2096 166.252C63.8409 164.852 61.7497 162.43 61.7497 159.925C61.7497 157.057 64.2756 153.945 68.1848 151.997C69.3719 151.406 70.6765 150.917 72.0625 150.545C72.1047 150.533 72.149 150.529 72.1929 150.533C72.2368 150.537 72.2794 150.549 72.3183 150.568C72.3572 150.587 72.3915 150.612 72.4194 150.643C72.4472 150.674 72.4681 150.709 72.4806 150.748C72.4932 150.786 72.4973 150.826 72.4926 150.865C72.488 150.905 72.4747 150.943 72.4536 150.978C72.4324 151.013 72.4038 151.044 72.3694 151.069C72.335 151.094 72.2955 151.112 72.2531 151.123C70.9129 151.483 69.6529 151.955 68.5079 152.525C64.8087 154.369 62.4182 157.273 62.4182 159.925C62.4182 162.198 64.3722 164.417 67.5174 165.716C67.5274 165.72 67.5371 165.725 67.5465 165.73C68.0363 165.93 68.5393 166.103 69.0527 166.247C69.1308 166.269 69.1972 166.316 69.2394 166.379C69.2817 166.442 69.2968 166.517 69.2819 166.59C69.2675 166.66 67.8309 173.663 66.9241 177.344C66.9076 177.411 66.8663 177.471 66.8069 177.514C66.7476 177.557 66.6738 177.58 66.5978 177.58Z" fill="#242D35"/>
<path d="M67.3786 165.99V165.992C63.9599 165.316 61.9338 163.286 61.0377 162.797C59.9912 162.227 60.1216 164.489 59.2489 164.489C58.3763 164.489 57.9082 163.697 58.2459 161.931C58.6822 159.649 62.3885 154.729 68.3466 152.261C64.224 154.316 62.0842 157.374 62.0842 159.925C62.0842 162.282 64.1054 164.639 67.3786 165.99Z" fill="#242D35"/>
<path d="M67.3785 166.294C67.3546 166.294 67.3307 166.291 67.3069 166.287C64.6034 165.752 62.7458 164.395 61.6357 163.584C61.3228 163.355 61.0526 163.158 60.8645 163.055C60.7781 163.008 60.7298 163.003 60.7159 163.008C60.59 163.048 60.4287 163.441 60.3324 163.677C60.1291 164.173 59.8762 164.791 59.2486 164.791C58.8386 164.791 58.4902 164.65 58.2414 164.384C57.7987 163.909 57.6892 163.067 57.9163 161.88C58.3939 159.381 62.3335 154.42 68.207 151.987C68.2856 151.955 68.375 151.951 68.4564 151.977C68.5379 152.003 68.6051 152.056 68.644 152.126C68.683 152.195 68.6905 152.276 68.6652 152.35C68.6398 152.425 68.5835 152.488 68.5081 152.525C64.8089 154.369 62.4184 157.273 62.4184 159.925C62.4184 162.198 64.3724 164.417 67.5177 165.716C67.576 165.74 67.6254 165.779 67.66 165.827C67.6946 165.876 67.713 165.933 67.713 165.99V165.992C67.7129 166.072 67.6777 166.149 67.615 166.205C67.5523 166.262 67.4673 166.294 67.3787 166.294H67.3785ZM60.7278 162.403C60.8828 162.403 61.0443 162.448 61.2104 162.538C61.4378 162.662 61.7109 162.862 62.0568 163.115C62.6195 163.526 63.3829 164.083 64.3541 164.592C62.7011 163.266 61.7497 161.614 61.7497 159.925C61.7497 158.358 62.5035 156.719 63.825 155.236C60.6221 157.706 58.8409 160.593 58.5753 161.982C58.3238 163.298 58.5788 163.808 58.753 163.995C58.8742 164.125 59.0362 164.188 59.2488 164.188C59.4106 164.188 59.588 163.754 59.7054 163.468C59.8856 163.027 60.072 162.572 60.4951 162.438C60.5699 162.415 60.6487 162.403 60.728 162.403L60.7278 162.403ZM78.6001 170.637C78.5283 170.637 78.4628 170.636 78.4035 170.634C78.3148 170.631 78.2312 170.596 78.1708 170.537C78.1105 170.479 78.0784 170.401 78.0817 170.321C78.083 170.281 78.0931 170.242 78.1113 170.206C78.1295 170.17 78.1555 170.137 78.1877 170.11C78.22 170.083 78.2578 170.062 78.2991 170.049C78.3404 170.035 78.3843 170.029 78.4282 170.03C79.5917 170.074 83.6099 169.68 85.1332 169.045C85.1731 169.028 85.2162 169.019 85.2601 169.017C85.3039 169.016 85.3477 169.022 85.3889 169.035C85.4301 169.049 85.468 169.07 85.5002 169.097C85.5325 169.124 85.5585 169.156 85.5769 169.192C85.5953 169.228 85.6057 169.267 85.6075 169.307C85.6093 169.346 85.6024 169.386 85.5872 169.423C85.572 169.46 85.5489 169.494 85.5191 169.523C85.4893 169.552 85.4534 169.576 85.4136 169.593C83.8559 170.242 80.0364 170.637 78.5997 170.637H78.6001ZM95.6787 162.674C95.6131 162.674 95.5488 162.657 95.4941 162.624C95.4393 162.591 95.3964 162.545 95.3708 162.49C95.1254 161.969 95.1536 160.807 95.1862 159.461C95.2138 158.326 95.2423 157.152 95.0783 156.576C94.8402 155.738 93.5483 154.073 92.51 152.736C92.0417 152.133 91.5995 151.563 91.2817 151.11C90.7122 150.296 90.4686 148.93 90.2105 147.485C89.9773 146.178 89.736 144.826 89.2476 143.981C88.6984 143.031 87.4865 142.232 86.3146 141.459C85.3358 140.814 84.4112 140.204 83.8425 139.505C83.4025 138.964 83.3028 138.344 83.1975 137.687C82.9896 136.393 82.7538 134.925 79.663 133.543C79.4974 133.469 79.4297 133.288 79.5118 133.139C79.5939 132.99 79.7944 132.928 79.9599 133.003C83.3652 134.525 83.6392 136.23 83.8594 137.601C83.9565 138.206 84.0404 138.728 84.3816 139.148C84.8893 139.772 85.7733 140.355 86.7092 140.972C87.9433 141.786 89.2191 142.627 89.8405 143.702C90.3792 144.634 90.6291 146.034 90.8706 147.389C91.1067 148.711 91.3506 150.078 91.8473 150.787C92.1564 151.229 92.5942 151.793 93.0576 152.39C94.1825 153.839 95.4577 155.481 95.7261 156.426C95.9126 157.083 95.8832 158.298 95.8548 159.474C95.8279 160.589 95.7973 161.852 95.9863 162.255C96.008 162.3 96.0167 162.35 96.0117 162.4C96.0066 162.45 95.9881 162.497 95.9576 162.539C95.9271 162.581 95.8857 162.615 95.837 162.638C95.7884 162.662 95.734 162.674 95.6787 162.674V162.674ZM68.1895 121.464C68.1397 121.464 68.0906 121.454 68.0457 121.435C68.0008 121.416 67.9612 121.388 67.9298 121.353C67.6139 121.002 67.5746 120.549 67.8274 120.171C68.0678 119.81 68.5185 119.62 68.9473 119.696C68.9903 119.704 69.0313 119.719 69.0678 119.741C69.1043 119.763 69.1357 119.792 69.1601 119.825C69.1846 119.858 69.2015 119.895 69.2101 119.933C69.2187 119.972 69.2188 120.012 69.2102 120.051C69.2017 120.09 69.1847 120.127 69.1604 120.16C69.136 120.193 69.1047 120.221 69.0682 120.243C69.0317 120.265 68.9907 120.281 68.9477 120.288C68.9046 120.296 68.8603 120.296 68.8172 120.288C68.6393 120.255 68.4795 120.362 68.4001 120.482C68.3498 120.557 68.2538 120.756 68.4486 120.972C68.4883 121.016 68.5134 121.07 68.5208 121.126C68.5283 121.183 68.5179 121.24 68.4907 121.292C68.4636 121.343 68.4209 121.386 68.3676 121.417C68.3142 121.447 68.2524 121.464 68.1893 121.464L68.1895 121.464Z" fill="#242D35"/>
</g>
<g clip-path="url(#clip6_0_2342)">
<path d="M52.8138 100.827H77.7547C79.1869 97.5222 72.6627 95.1616 69.4802 98.3719C69.2681 93.7452 64.0699 91.6208 60.5161 91.6208C55.8484 91.6208 50.8095 95.3032 52.8138 100.827Z" fill="white"/>
</g>
<defs>
<linearGradient id="paint0_linear_0_2342" x1="225.005" y1="60.9842" x2="125.849" y2="221.716" gradientUnits="userSpaceOnUse">
<stop stop-color="#2F51FF"/>
<stop offset="1" stop-color="#0E33F3"/>
</linearGradient>
<linearGradient id="paint1_linear_0_2342" x1="222.235" y1="76.8303" x2="56.1321" y2="277.202" gradientUnits="userSpaceOnUse">
<stop stop-color="#2F51FF"/>
<stop offset="1" stop-color="#0E33F3"/>
</linearGradient>
<linearGradient id="paint2_linear_0_2342" x1="189.875" y1="74.7176" x2="160.614" y2="130.622" gradientUnits="userSpaceOnUse">
<stop stop-color="#2F51FF"/>
<stop offset="1" stop-color="#0E33F3"/>
</linearGradient>
<linearGradient id="paint3_linear_0_2342" x1="69.1489" y1="240.4" x2="61.4682" y2="252.905" gradientUnits="userSpaceOnUse">
<stop stop-color="#2F51FF"/>
<stop offset="1" stop-color="#0E33F3"/>
</linearGradient>
<linearGradient id="paint4_linear_0_2342" x1="139.013" y1="206.006" x2="133.163" y2="216.268" gradientUnits="userSpaceOnUse">
<stop stop-color="#2F51FF"/>
<stop offset="1" stop-color="#0E33F3"/>
</linearGradient>
<linearGradient id="paint5_linear_0_2342" x1="78.7463" y1="164.806" x2="75.9088" y2="169.796" gradientUnits="userSpaceOnUse">
<stop stop-color="#2F51FF"/>
<stop offset="1" stop-color="#0E33F3"/>
</linearGradient>
<linearGradient id="paint6_linear_0_2342" x1="149.601" y1="124.342" x2="139.791" y2="138.321" gradientUnits="userSpaceOnUse">
<stop stop-color="#2F51FF"/>
<stop offset="1" stop-color="#0E33F3"/>
</linearGradient>
<linearGradient id="paint7_linear_0_2342" x1="81.4707" y1="112.499" x2="61.9533" y2="128.365" gradientUnits="userSpaceOnUse">
<stop stop-color="#2F51FF"/>
<stop offset="1" stop-color="#0E33F3"/>
</linearGradient>
<linearGradient id="paint8_linear_0_2342" x1="145.067" y1="161.223" x2="68.1079" y2="251.588" gradientUnits="userSpaceOnUse">
<stop stop-color="#2F51FF"/>
<stop offset="1" stop-color="#0E33F3"/>
</linearGradient>
<linearGradient id="paint9_linear_0_2342" x1="107.909" y1="159.507" x2="102.756" y2="176.546" gradientUnits="userSpaceOnUse">
<stop stop-color="#2F51FF"/>
<stop offset="1" stop-color="#0E33F3"/>
</linearGradient>
<linearGradient id="paint10_linear_0_2342" x1="92.3711" y1="133.657" x2="56.1953" y2="166.177" gradientUnits="userSpaceOnUse">
<stop stop-color="#2F51FF"/>
<stop offset="1" stop-color="#0E33F3"/>
</linearGradient>
<linearGradient id="paint11_linear_0_2342" x1="84.2064" y1="133.657" x2="72.1413" y2="148.112" gradientUnits="userSpaceOnUse">
<stop stop-color="#2F51FF"/>
<stop offset="1" stop-color="#0E33F3"/>
</linearGradient>
<linearGradient id="paint12_linear_0_2342" x1="137.508" y1="131.243" x2="109.472" y2="181.053" gradientUnits="userSpaceOnUse">
<stop stop-color="#2F51FF"/>
<stop offset="1" stop-color="#0E33F3"/>
</linearGradient>
<linearGradient id="paint13_linear_0_2342" x1="94.0947" y1="131.886" x2="84.1028" y2="144.494" gradientUnits="userSpaceOnUse">
<stop stop-color="#2F51FF"/>
<stop offset="1" stop-color="#0E33F3"/>
</linearGradient>
<linearGradient id="paint14_linear_0_2342" x1="86.0211" y1="165.679" x2="78.3702" y2="178.865" gradientUnits="userSpaceOnUse">
<stop stop-color="#2F51FF"/>
<stop offset="1" stop-color="#0E33F3"/>
</linearGradient>
<linearGradient id="paint15_linear_0_2342" x1="72.1579" y1="136.947" x2="36.0748" y2="161.643" gradientUnits="userSpaceOnUse">
<stop stop-color="#2F51FF"/>
<stop offset="1" stop-color="#0E33F3"/>
</linearGradient>
<clipPath id="clip0_0_2342">
<rect width="172.309" height="115.604" fill="white" transform="translate(52.6963 60.9842)"/>
</clipPath>
<clipPath id="clip1_0_2342">
<rect width="60.0572" height="17.2048" fill="white" transform="translate(167.959 123.465)"/>
</clipPath>
<clipPath id="clip2_0_2342">
<rect width="216.139" height="176.726" fill="white" transform="translate(16.2271 76.5289)"/>
</clipPath>
<clipPath id="clip3_0_2342">
<rect width="62.2319" height="17.6576" fill="white" transform="translate(92.1768 70.1902)"/>
</clipPath>
<clipPath id="clip4_0_2342">
<rect width="67.4179" height="88.7405" fill="white" transform="translate(122.791 74.416)"/>
</clipPath>
<clipPath id="clip5_0_2342">
<rect width="111.415" height="145.184" fill="white" transform="translate(41.1533 108.071)"/>
</clipPath>
<clipPath id="clip6_0_2342">
<rect width="25.5954" height="9.20607" fill="white" transform="translate(52.3618 91.6208)"/>
</clipPath>
</defs>
</svg>
