<svg width="20" height="22" viewBox="0 0 20 22" fill="none" xmlns="http://www.w3.org/2000/svg">
<path fill-rule="evenodd" clip-rule="evenodd" d="M10 0C7.87827 0 5.84344 0.842855 4.34315 2.34315C2.84285 3.84344 2 5.87827 2 8V10.9939C1.97138 13.2833 1.3308 15.5235 0.144644 17.482C-0.0423749 17.7908 -0.0484373 18.1764 0.128782 18.4909C0.306002 18.8054 0.638988 19 1 19H19C19.361 19 19.694 18.8054 19.8712 18.4909C20.0484 18.1764 20.0424 17.7908 19.8554 17.482C18.6692 15.5235 18.0286 13.2833 18 10.9939V8C18 5.87827 17.1571 3.84344 15.6569 2.34315C14.1566 0.842855 12.1217 0 10 0ZM5.75736 3.75736C6.88258 2.63214 8.4087 2 10 2C11.5913 2 13.1174 2.63214 14.2426 3.75736C15.3679 4.88258 16 6.4087 16 8L15.9999 11L16.0001 11.012C16.025 13.086 16.4845 15.125 17.3415 17H2.65852C3.51551 15.125 3.97503 13.086 4 11.012V8C4 6.4087 4.63214 4.88258 5.75736 3.75736Z" fill="#9BA1A8"/>
<path d="M8.16445 21.4497C7.62734 21.0916 7.22059 20.5852 7 20H13C12.7794 20.5852 12.3727 21.0916 11.8355 21.4497C11.2984 21.8078 10.6573 22 10 22C9.34273 22 8.70157 21.8078 8.16445 21.4497Z" fill="#9BA1A8"/>
</svg>
