<svg width="24" height="24" viewBox="0 0 24 24" fill="none" xmlns="http://www.w3.org/2000/svg">
<path d="M15.4739 14.2961L13.226 16.5119C12.054 15.8048 10.9654 14.968 9.98059 14.0173C9.03187 13.0311 8.19566 11.9424 7.48735 10.7715L9.70091 8.52322C9.83385 8.38727 9.92364 8.21504 9.95896 8.02819C9.99429 7.84133 9.97358 7.64821 9.89945 7.47309L7.59235 2.08305C7.50139 1.87129 7.33754 1.69917 7.13052 1.59792C6.92351 1.49668 6.68706 1.47302 6.4641 1.53125L2.22216 2.65107C2.01021 2.7055 1.82318 2.83063 1.69197 3.00578C1.56076 3.18092 1.49323 3.3956 1.50054 3.61433C1.77008 8.54094 3.81838 13.2022 7.26495 16.7324C10.7954 20.1808 15.4575 22.2302 20.385 22.4995C20.6037 22.5064 20.8182 22.4387 20.9934 22.3075C21.1685 22.1764 21.294 21.9896 21.349 21.7778L22.4678 17.5391C22.5271 17.3157 22.5041 17.0784 22.4029 16.8705C22.3018 16.6626 22.1294 16.4981 21.917 16.4069L16.5325 14.0985C16.3564 14.0222 16.1616 14.0003 15.973 14.0355C15.7844 14.0707 15.6106 14.1614 15.4739 14.2961Z" fill="#242D35"/>
</svg>
