<svg width="24" height="24" viewBox="0 0 24 24" fill="none" xmlns="http://www.w3.org/2000/svg">
<path d="M22 11.7262C22.0039 13.2365 21.651 14.7264 20.9701 16.0744C20.1628 17.6898 18.9216 19.0485 17.3857 19.9984C15.8497 20.9483 14.0797 21.4517 12.2738 21.4524C10.7635 21.4564 9.27365 21.1035 7.92558 20.4226L3.35728 21.9454C2.5522 22.2137 1.78627 21.4478 2.05463 20.6427L3.5774 16.0744C2.89648 14.7264 2.54362 13.2365 2.54756 11.7262C2.54826 9.92032 3.05174 8.15026 4.00159 6.61432C4.95145 5.07837 6.31018 3.83722 7.92558 3.02987C9.27365 2.34895 10.7635 1.99609 12.2738 2.00003H12.8459C15.2309 2.13161 17.4836 3.1383 19.1727 4.82734C20.8617 6.51637 21.8684 8.76907 22 11.1541V11.7262Z" fill="#242D35"/>
</svg>
