<svg width="22" height="25" viewBox="0 0 22 25" fill="none" xmlns="http://www.w3.org/2000/svg">
<path d="M0.829646 23.3407C0.371073 23.3407 0 23.7118 0 24.1703C0 24.6289 0.371073 25 0.829646 25H20.7411C21.1997 25 21.5708 24.6289 21.5708 24.1703C21.5708 23.7118 21.1997 23.3407 20.7411 23.3407C20.574 23.3407 19.7444 23.3407 19.9115 23.3407C19.9115 23.1606 19.9115 16.4018 19.9115 16.6482C19.7318 16.6482 16.3148 16.6482 16.5091 16.6482C16.0998 19.471 13.6875 21.6261 10.7854 21.6261C7.88733 21.6261 5.47151 19.475 5.06172 16.6482C4.88202 16.6482 1.46504 16.6482 1.65929 16.6482C1.65929 16.8283 1.65929 23.5871 1.65929 23.3407C1.4922 23.3407 0.662555 23.3407 0.829646 23.3407Z" fill="#242D35"/>
<path d="M0.829646 8.35178C0.364989 8.35178 0 8.71676 0 9.18142C0 9.64608 0.364989 10.0111 0.829646 10.0111C0.996736 10.0111 1.82638 10.0111 1.65929 10.0111C1.65929 9.84398 1.65929 8.18469 1.65929 8.35178C1.4922 8.35178 0.662555 8.35178 0.829646 8.35178Z" fill="#242D35"/>
<path d="M20.7411 10.0111C21.2058 10.0111 21.5708 9.64608 21.5708 9.18142C21.5708 8.71677 21.2058 8.35178 20.7411 8.35178C20.574 8.35178 19.7444 8.35178 19.9115 8.35178C19.9115 8.51887 19.9115 10.1782 19.9115 10.0111C20.0786 10.0111 20.9082 10.0111 20.7411 10.0111Z" fill="#242D35"/>
<path d="M0.829646 14.9889C0.364989 14.9889 0 15.3539 0 15.8186C0 16.2832 0.364989 16.6482 0.829646 16.6482C0.996736 16.6482 1.82638 16.6482 1.65929 16.6482C1.65929 16.4811 1.65929 14.8218 1.65929 14.9889C1.4922 14.9889 0.662555 14.9889 0.829646 14.9889Z" fill="#242D35"/>
<path d="M20.7411 16.6482C21.2058 16.6482 21.5708 16.2832 21.5708 15.8186C21.5708 15.3539 21.2058 14.9889 20.7411 14.9889C20.574 14.9889 19.7444 14.9889 19.9115 14.9889C19.9115 15.156 19.9115 16.8153 19.9115 16.6482C20.0786 16.6482 20.9082 16.6482 20.7411 16.6482Z" fill="#242D35"/>
<path d="M4.97786 10.0111C4.79351 10.0111 1.47974 10.0111 1.65927 10.0111C1.65927 10.5717 1.65927 15.2386 1.65927 14.9889C1.84362 14.9889 5.15739 14.9889 4.97786 14.9889C4.97786 14.4283 4.97786 9.76146 4.97786 10.0111Z" fill="#242D35"/>
<path d="M10.7854 19.9668C13.0725 19.9668 14.9336 18.1058 14.9336 15.8186C14.9336 15.6385 14.9336 8.935 14.9336 9.18141C14.9336 6.8943 13.0726 5.03318 10.7854 5.03318C8.49825 5.03318 6.63713 6.89413 6.63713 9.18141C6.63713 9.3615 6.63713 16.065 6.63713 15.8186C6.63713 18.1057 8.49808 19.9668 10.7854 19.9668ZM9.95572 8.60425C9.95572 8.43716 9.95572 7.45469 9.95572 7.62178C9.95572 7.16321 10.3268 6.79214 10.7854 6.79214C11.2439 6.79214 11.615 7.16321 11.615 7.62178C11.615 7.78887 11.615 8.76929 11.615 8.6022C11.9826 8.73229 12.2953 8.92986 12.5459 9.18141C12.8692 9.50547 12.8692 10.0313 12.5443 10.3546C12.2194 10.6779 11.6944 10.6779 11.3711 10.353C11.1334 10.114 10.7797 10.0909 10.4854 10.2125C10.1911 10.3341 9.95616 10.6005 9.95577 10.9404C9.95577 11.3981 10.3276 11.77 10.7854 11.77C12.1579 11.77 13.2744 12.8864 13.2744 14.2589C13.2744 15.3268 12.5907 16.2472 11.6151 16.5951C11.6151 16.7622 11.6151 17.7446 11.6151 17.5775C11.6151 18.0361 11.244 18.4072 10.7854 18.4072C10.3268 18.4072 9.95577 18.0361 9.95577 17.5775C9.95577 17.4104 9.95577 16.43 9.95577 16.5971C9.58818 16.467 9.27552 16.2695 9.02485 16.0179C8.70157 15.6938 8.70157 15.168 9.02646 14.8447C9.3493 14.5227 9.8743 14.5202 10.1996 14.8463C10.4386 15.0858 10.7927 15.1091 11.0869 14.9874C11.3811 14.8658 11.6154 14.5993 11.6151 14.2589C11.6151 13.8012 11.2432 13.4293 10.7854 13.4293C9.41296 13.4293 8.29648 12.3129 8.29648 10.9404C8.29642 9.8725 8.98011 8.95215 9.95572 8.60425Z" fill="#242D35"/>
<path d="M10.7854 3.37389C13.6835 3.37389 16.0993 5.52494 16.5091 8.35177C16.6888 8.35177 20.1057 8.35177 19.9115 8.35177C19.9115 8.17168 19.9115 1.41289 19.9115 1.65929C20.0786 1.65929 20.9082 1.65929 20.7411 1.65929C21.1997 1.65929 21.5708 1.28822 21.5708 0.829646C21.5708 0.371073 21.1997 0 20.7411 0C14.2663 0 6.69325 0 0.829646 0C0.371073 0 0 0.371073 0 0.829646C0 1.28822 0.371073 1.65929 0.829646 1.65929C0.996736 1.65929 1.82638 1.65929 1.65929 1.65929C1.65929 1.83938 1.65929 8.59817 1.65929 8.35177C1.83899 8.35177 5.25597 8.35177 5.06172 8.35177C5.47096 5.52904 7.88324 3.37389 10.7854 3.37389Z" fill="#242D35"/>
<path d="M16.5929 14.9889C16.7773 14.9889 20.091 14.9889 19.9115 14.9889C19.9115 14.4283 19.9115 9.76146 19.9115 10.0111C19.7272 10.0111 16.4134 10.0111 16.5929 10.0111C16.5929 10.5717 16.5929 15.2386 16.5929 14.9889Z" fill="#242D35"/>
</svg>
