<svg width="44" height="44" viewBox="0 0 44 44" fill="none" xmlns="http://www.w3.org/2000/svg">
<path d="M0 12C0 5.37258 5.37258 0 12 0H32C38.6274 0 44 5.37258 44 12V32C44 38.6274 38.6274 44 32 44H12C5.37258 44 0 38.6274 0 32V12Z" fill="#EBEEF0"/>
<path d="M25.7917 15.2292C26.9834 15.2292 27.9584 14.2542 27.9584 13.0625C27.9584 11.8708 26.9834 10.8958 25.7917 10.8958C24.6 10.8958 23.625 11.8708 23.625 13.0625C23.625 14.2542 24.6 15.2292 25.7917 15.2292Z" fill="#242D35"/>
<path d="M14.4167 22.2708C11.4375 22.2708 9 24.7083 9 27.6875C9 30.6667 11.4375 33.1042 14.4167 33.1042C17.3959 33.1042 19.8334 30.6667 19.8334 27.6875C19.8334 24.7083 17.3958 22.2708 14.4167 22.2708ZM14.4167 31.4792C12.3042 31.4792 10.625 29.8 10.625 27.6875C10.625 25.575 12.3042 23.8958 14.4167 23.8958C16.5292 23.8958 18.2084 25.575 18.2084 27.6875C18.2084 29.8 16.5292 31.4792 14.4167 31.4792Z" fill="#242D35"/>
<path d="M29.5292 21.1333V18.9666C27.9042 18.9666 26.55 18.3708 25.575 17.3958L23.4625 15.3375C23.1375 14.9583 22.5958 14.6875 22 14.6875C21.4042 14.6875 20.8625 14.9042 20.4833 15.3375L17.5041 18.3167C17.1249 18.6959 16.8541 19.2375 16.8541 19.8334C16.8541 20.4292 17.1249 20.9709 17.5041 21.4042L20.9166 24.4375V29.8542H23.0833V23.0833L20.7 20.7L23.2458 18.1L24.0583 18.9125C25.4125 20.3208 27.3083 21.1333 29.5292 21.1333Z" fill="#242D35"/>
<path d="M29.5833 22.2708C26.6041 22.2708 24.1666 24.7083 24.1666 27.6875C24.1666 30.6667 26.6041 33.1042 29.5833 33.1042C32.5625 33.1042 35 30.6667 35 27.6875C35 24.7083 32.5625 22.2708 29.5833 22.2708ZM29.5833 31.4792C27.4708 31.4792 25.7916 29.8 25.7916 27.6875C25.7916 25.575 27.4708 23.8958 29.5833 23.8958C31.6958 23.8958 33.375 25.575 33.375 27.6875C33.375 29.8 31.6958 31.4792 29.5833 31.4792Z" fill="#242D35"/>
</svg>
