<svg width="25" height="24" viewBox="0 0 25 24" fill="none" xmlns="http://www.w3.org/2000/svg">
<g clip-path="url(#clip0_0_28)">
<path d="M12.5 7.12355C7.13658 7.12355 2.97769 12.7936 2.97769 17.6713C2.97769 23.3442 8.4127 24 12.5 24C16.5873 24 22.0223 23.3442 22.0223 17.6713C22.0223 12.7936 17.8634 7.12355 12.5 7.12355ZM13.2525 18.9506C13.2459 18.9529 13.2391 18.9518 13.2325 18.9541V19.7808C13.2325 20.1695 12.9048 20.484 12.5 20.484C12.0952 20.484 11.7675 20.1695 11.7675 19.7808V18.9492C11.2847 18.7928 10.8221 18.496 10.4271 18.0442C10.1667 17.7468 10.2067 17.3032 10.5172 17.0532C10.8262 16.8033 11.2883 16.8411 11.5487 17.1391C12.9929 18.7951 13.9678 16.2649 12.5001 16.2649C11.2883 16.2649 10.3026 15.3186 10.3026 14.1553C10.3026 13.3139 10.8044 12.5115 11.7676 12.1824V11.3425C11.7676 10.9538 12.0952 10.6394 12.5001 10.6394C12.9049 10.6394 13.2325 10.9539 13.2325 11.3425V12.1847C13.6118 12.3074 13.9815 12.5022 14.3112 12.8086C14.6017 13.0792 14.6103 13.5242 14.3284 13.803C14.0466 14.0825 13.5831 14.09 13.2926 13.8195C11.9452 12.5699 11.0351 14.8585 12.5001 14.8585C13.7118 14.8585 14.6976 15.8048 14.6976 16.9681C14.6975 17.8512 14.1166 18.6485 13.2525 18.9506Z" fill="#242D35"/>
<path d="M16.6775 0.566538C13.9735 -0.188805 11.0264 -0.188805 8.32252 0.566538C7.86881 0.692585 7.65221 1.19832 7.8962 1.59798L9.00411 3.50204C10.9306 2.76615 13.788 2.65627 15.9956 3.50237L17.1037 1.59798C17.3477 1.19832 17.1311 0.692632 16.6775 0.566538Z" fill="#242D35"/>
<path d="M15.901 5.03466C14.5305 4.10775 10.5101 4.06908 9.09052 5.03897C8.48188 5.45142 8.15785 6.09942 8.16415 6.77635C9.5707 6.06103 11.2199 5.7172 12.5 5.7172C14.0591 5.7172 15.5196 6.10692 16.8359 6.77635C16.842 6.12417 16.5401 5.46731 15.901 5.03466Z" fill="#242D35"/>
</g>
<defs>
<clipPath id="clip0_0_28">
<rect width="25" height="24" fill="white"/>
</clipPath>
</defs>
</svg>
