<svg width="29" height="30" viewBox="0 0 29 30" fill="none" xmlns="http://www.w3.org/2000/svg">
<path d="M5.4375 8.90625C5.18738 8.90625 4.98438 9.11672 4.98438 9.375C4.98438 9.63328 5.18738 9.84375 5.4375 9.84375H9.96875C10.2189 9.84375 10.4219 9.63328 10.4219 9.375C10.4219 9.11672 10.2189 8.90625 9.96875 8.90625H5.4375Z" fill="#242D35"/>
<path d="M8.24595 7.96875L9.01627 4.38422C8.7095 4.12172 8.1721 3.75 7.70311 3.75C7.23413 3.75 6.69672 4.12172 6.39041 4.38422L7.16072 7.96875H8.24595Z" fill="#242D35"/>
<path d="M26.2812 12.6562H27.1875C27.4376 12.6562 27.6406 12.4458 27.6406 12.1875C27.6406 11.9292 27.4376 11.7188 27.1875 11.7188H26.2812C26.0311 11.7188 25.8281 11.9292 25.8281 12.1875C25.8281 12.4458 26.0311 12.6562 26.2812 12.6562Z" fill="#242D35"/>
<path d="M6.23183 7.96875L5.65454 5.2814L5.48689 5.31047C4.75283 5.43703 4.19956 6.03515 4.09579 6.77671L6.01614 7.96875H6.23183Z" fill="#242D35"/>
<path d="M19.4386 4.21875H17.6719V6.04641C18.5582 5.85938 19.2578 5.13562 19.4386 4.21875Z" fill="#242D35"/>
<path d="M21.2969 8.90625C21.7967 8.90625 22.2031 9.32672 22.2031 9.84375C22.2031 9.85313 22.2009 9.86156 22.2004 9.87047C23.3504 9.97594 24.4071 10.4827 25.2255 11.3123C25.3818 11.1108 25.5884 10.9561 25.8281 10.8675V6.99375C24.442 6.78703 23.3455 5.65266 23.1456 4.21875H20.3544C20.1545 5.65266 19.058 6.78703 17.6719 6.99375V8.91047C17.6877 8.91 17.7031 8.90625 17.719 8.90625H21.2969Z" fill="#242D35"/>
<path d="M25.8281 6.04641V4.21875H24.0614C24.2422 5.13562 24.9418 5.85938 25.8281 6.04641Z" fill="#242D35"/>
<path d="M11.3104 6.77671C11.2067 6.03468 10.6534 5.43703 9.91935 5.31047L9.75169 5.2814L9.17441 7.96875H9.3901L11.3104 6.77671Z" fill="#242D35"/>
<path d="M24.9409 12.3806C24.2028 11.4178 23.1261 10.8497 21.9453 10.7925C21.629 11.3442 21.054 11.7187 20.3906 11.7187H18.3674L18.3497 11.7464C18.1631 12.0361 17.9315 12.2822 17.6719 12.4875V15C17.6719 17.3259 19.5011 19.2188 21.75 19.2188C23.0074 19.2188 24.162 18.6352 24.9409 17.6194C24.9794 17.3348 25.0981 17.0789 25.2758 16.875C25.0583 16.6256 24.9223 16.2989 24.9223 15.9375C24.9223 15.5761 25.0587 15.2494 25.2758 15C25.0583 14.7506 24.9223 14.4239 24.9223 14.0625C24.9223 13.7011 25.0587 13.3744 25.2758 13.125C25.0977 12.9211 24.979 12.6652 24.9409 12.3806ZM21.75 14.5312C22.4995 14.5312 23.1094 15.1622 23.1094 15.9375C23.1094 16.5478 22.7292 17.0634 22.2031 17.2575V18.2813H21.2969V17.2575C20.7708 17.0634 20.3906 16.5478 20.3906 15.9375H21.2969C21.2969 16.1958 21.4999 16.4062 21.75 16.4062C22.0001 16.4062 22.2031 16.1958 22.2031 15.9375C22.2031 15.6792 22.0001 15.4687 21.75 15.4687C21.0005 15.4687 20.3906 14.8378 20.3906 14.0625C20.3906 13.4522 20.7708 12.9366 21.2969 12.7425V11.7187H22.2031V12.7425C22.7292 12.9366 23.1094 13.4522 23.1094 14.0625H22.2031C22.2031 13.8042 22.0001 13.5937 21.75 13.5937C21.4999 13.5937 21.2969 13.8042 21.2969 14.0625C21.2969 14.3208 21.4999 14.5312 21.75 14.5312Z" fill="#242D35"/>
<path d="M27.1875 17.3438H26.2812C26.0311 17.3438 25.8281 17.5542 25.8281 17.8125C25.8281 18.0708 26.0311 18.2812 26.2812 18.2812H27.1875C27.4376 18.2812 27.6406 18.0708 27.6406 17.8125C27.6406 17.5542 27.4376 17.3438 27.1875 17.3438Z" fill="#242D35"/>
<path d="M27.1875 15.4688H26.2812C26.0311 15.4688 25.8281 15.6792 25.8281 15.9375C25.8281 16.1958 26.0311 16.4062 26.2812 16.4062H27.1875C27.4376 16.4062 27.6406 16.1958 27.6406 15.9375C27.6406 15.6792 27.4376 15.4688 27.1875 15.4688Z" fill="#242D35"/>
<path d="M21.75 20.1563C20.0644 20.1563 18.5745 19.2839 17.6719 17.9555V23.0063C19.058 23.213 20.1545 24.3473 20.3544 25.7813H23.1456C23.3455 24.3473 24.442 23.213 25.8281 23.0063V19.1325C25.5884 19.0439 25.3818 18.8892 25.2255 18.6877C24.3011 19.6252 23.0727 20.1563 21.75 20.1563Z" fill="#242D35"/>
<path d="M27.1875 13.5938H26.2812C26.0311 13.5938 25.8281 13.8042 25.8281 14.0625C25.8281 14.3208 26.0311 14.5312 26.2812 14.5312H27.1875C27.4376 14.5312 27.6406 14.3208 27.6406 14.0625C27.6406 13.8042 27.4376 13.5938 27.1875 13.5938Z" fill="#242D35"/>
<path d="M17.6719 23.9536V25.7813H19.4386C19.2578 24.8644 18.5582 24.1406 17.6719 23.9536Z" fill="#242D35"/>
<path d="M24.0614 25.7813H25.8281V23.9536C24.9418 24.1406 24.2422 24.8644 24.0614 25.7813Z" fill="#242D35"/>
<path d="M20.3906 10.7812C20.8904 10.7812 21.2969 10.3608 21.2969 9.84375H17.719C17.2065 9.84375 16.704 10.0261 16.3039 10.3575L14.659 11.7188H11.5157L12.8293 13.0777C13.857 14.1408 14.5381 15.4669 14.814 16.9097L15.8879 17.7984C16.1444 18.0108 16.4471 18.1519 16.7656 18.2241V12.9741C16.4761 13.0692 16.172 13.125 15.8594 13.125V12.1875C16.5585 12.1875 17.2079 11.828 17.5958 11.2261L17.8826 10.7812H20.3906Z" fill="#242D35"/>
<path d="M9.32803 10.7812H6.07822L3.21764 13.7405C2.01912 14.9803 1.35938 16.628 1.35938 18.3811V18.75C1.35938 22.3687 4.205 25.3125 7.70312 25.3125C11.2013 25.3125 14.0469 22.3687 14.0469 18.75V18.3811C14.0469 16.628 13.3871 14.9798 12.1886 13.7405L9.32803 10.7812ZM7.70312 24.375V23.4375C7.97998 23.4375 8.25775 23.4113 8.52691 23.3597L8.69139 24.2817C8.36786 24.3436 8.03481 24.375 7.70312 24.375ZM13.1406 18.75C13.1406 21.0455 11.7504 23.1511 9.68056 23.9897L9.35023 23.1169C11.0753 22.418 12.2344 20.663 12.2344 18.75H13.1406Z" fill="#242D35"/>
</svg>
