<svg width="24" height="5" viewBox="0 0 24 5" fill="none" xmlns="http://www.w3.org/2000/svg">
<path d="M2.4 4.8C3.72548 4.8 4.8 3.72548 4.8 2.4C4.8 1.07452 3.72548 0 2.4 0C1.07452 0 0 1.07452 0 2.4C0 3.72548 1.07452 4.8 2.4 4.8Z" fill="#242D35"/>
<path d="M12 4.8C13.3255 4.8 14.4 3.72548 14.4 2.4C14.4 1.07452 13.3255 0 12 0C10.6745 0 9.6 1.07452 9.6 2.4C9.6 3.72548 10.6745 4.8 12 4.8Z" fill="#242D35"/>
<path d="M24 2.4C24 3.72548 22.9255 4.8 21.6 4.8C20.2745 4.8 19.2 3.72548 19.2 2.4C19.2 1.07452 20.2745 0 21.6 0C22.9255 0 24 1.07452 24 2.4Z" fill="#242D35"/>
</svg>
