<svg width="205" height="134" viewBox="0 0 205 134" fill="none" xmlns="http://www.w3.org/2000/svg">
<rect x="16.0791" width="137.82" height="120.179" rx="60" fill="#EBEEF0"/>
<ellipse cx="3.44557" cy="17.0254" rx="2.29701" ry="2.00299" fill="#FBBE4A"/>
<ellipse cx="151.602" cy="11.0164" rx="2.29701" ry="2.00299" fill="#3EBD93"/>
<ellipse cx="164.81" cy="20.5306" rx="4.01976" ry="3.50523" fill="#EBEEF0"/>
<ellipse cx="2.29701" cy="109.163" rx="2.29701" ry="2.00299" fill="#EF4E4E"/>
<g clip-path="url(#clip0_1_20610)">
<rect x="43.6431" y="25.0374" width="82.6922" height="120.179" rx="8" fill="white" stroke="#0E33F3" stroke-width="4"/>
<line x1="0.5" y1="-0.5" x2="64.9268" y2="-0.5" transform="matrix(0.754823 0.658205 -0.754823 0.658205 57.4252 60.0897)" stroke="#EBEEF0" stroke-linecap="round"/>
<line x1="0.5" y1="-0.5" x2="11.6724" y2="-0.5" transform="matrix(0.754823 0.658206 -0.754823 0.658206 71.2072 110.164)" stroke="#EBEEF0" stroke-linecap="round"/>
<line x1="0.5" y1="-0.5" x2="17.7586" y2="-0.5" transform="matrix(0.754823 0.658205 -0.754823 0.658205 83.8407 51.0762)" stroke="#EBEEF0" stroke-linecap="round"/>
</g>
<g filter="url(#filter0_d_1_20610)">
<rect x="75.9157" y="59.0882" width="99.8049" height="44.0658" rx="8.8" fill="white"/>
</g>
<ellipse cx="97.3929" cy="81.1211" rx="12.6335" ry="11.0164" fill="#0E33F3"/>
<path d="M92.234 81.1209L95.9188 84.334L103.288 77.9078" stroke="white" stroke-width="1.67313" stroke-linecap="round" stroke-linejoin="round"/>
<rect x="117.606" y="67.9013" width="25.95" height="2.29908" rx="0.836566" fill="#FAFAFB"/>
<rect x="117.606" y="72.5" width="48.0074" height="2.29908" rx="0.836566" fill="#FAFAFB"/>
<rect x="117.606" y="78.2469" width="48.0074" height="16.0936" rx="1.67313" fill="#FAFAFB"/>
<path d="M126.006 89.7418L126.12 87.1074L123.478 88.5204L122.796 87.5146L125.58 86.2932L122.796 85.0718L123.478 84.0659L126.12 85.4789L126.006 82.8445H127.37L127.256 85.4789L129.899 84.0659L130.581 85.0718L127.796 86.2932L130.581 87.5146L129.899 88.5204L127.256 87.1074L127.37 89.7418H126.006Z" fill="#0F1B26"/>
<path d="M136.387 89.7418L136.5 87.1074L133.858 88.5204L133.176 87.5146L135.96 86.2932L133.176 85.0718L133.858 84.0659L136.5 85.4789L136.387 82.8445H137.75L137.637 85.4789L140.279 84.0659L140.961 85.0718L138.177 86.2932L140.961 87.5146L140.279 88.5204L137.637 87.1074L137.75 89.7418H136.387Z" fill="#0F1B26"/>
<path d="M146.767 89.7418L146.881 87.1074L144.238 88.5204L143.556 87.5146L146.341 86.2932L143.556 85.0718L144.238 84.0659L146.881 85.4789L146.767 82.8445H148.131L148.017 85.4789L150.659 84.0659L151.341 85.0718L148.557 86.2932L151.341 87.5146L150.659 88.5204L148.017 87.1074L148.131 89.7418H146.767Z" fill="#0F1B26"/>
<path d="M157.146 89.7418L157.26 87.1074L154.617 88.5204L153.935 87.5146L156.72 86.2932L153.935 85.0718L154.617 84.0659L157.26 85.4789L157.146 82.8445H158.51L158.396 85.4789L161.039 84.0659L161.72 85.0718L158.936 86.2932L161.72 87.5146L161.039 88.5204L158.396 87.1074L158.51 89.7418H157.146Z" fill="#0F1B26"/>
<defs>
<filter id="filter0_d_1_20610" x="51.6795" y="37.0553" width="152.684" height="96.9447" filterUnits="userSpaceOnUse" color-interpolation-filters="sRGB">
<feFlood flood-opacity="0" result="BackgroundImageFix"/>
<feColorMatrix in="SourceAlpha" type="matrix" values="0 0 0 0 0 0 0 0 0 0 0 0 0 0 0 0 0 0 127 0" result="hardAlpha"/>
<feOffset dx="2.2" dy="4.4"/>
<feGaussianBlur stdDeviation="13.2"/>
<feComposite in2="hardAlpha" operator="out"/>
<feColorMatrix type="matrix" values="0 0 0 0 0.0588235 0 0 0 0 0.0901962 0 0 0 0 0.164706 0 0 0 0.08 0"/>
<feBlend mode="normal" in2="BackgroundImageFix" result="effect1_dropShadow_1_20610"/>
<feBlend mode="normal" in="SourceGraphic" in2="effect1_dropShadow_1_20610" result="shape"/>
</filter>
<clipPath id="clip0_1_20610">
<rect x="16.0791" width="137.82" height="120.179" rx="60" fill="white"/>
</clipPath>
</defs>
</svg>
