<svg width="24" height="24" viewBox="0 0 24 24" fill="none" xmlns="http://www.w3.org/2000/svg">
<path d="M12.0632 2C7.01371 2 3 5.86895 3 10.7364C3 13.1076 3.90632 15.3541 5.71896 16.9766C5.84844 17.1014 11.0274 21.5944 11.1569 21.7192C11.6748 22.0936 12.4516 22.0936 12.8401 21.7192C12.9695 21.5944 18.278 17.1014 18.278 16.9766C20.0906 15.3541 20.997 13.1076 20.997 10.7364C21.1264 5.86895 17.1127 2 12.0632 2ZM12.0632 13.2324C10.639 13.2324 9.47372 12.1092 9.47372 10.7364C9.47372 9.36349 10.639 8.24025 12.0632 8.24025C13.4874 8.24025 14.6527 9.36349 14.6527 10.7364C14.6527 12.1092 13.4874 13.2324 12.0632 13.2324Z" fill="#242D35"/>
</svg>
