<svg width="20" height="22" viewBox="0 0 20 22" fill="none" xmlns="http://www.w3.org/2000/svg">
<path d="M13.7071 5.29289C14.0976 5.68342 14.0976 6.31658 13.7071 6.70711L9.70711 10.7071C9.31658 11.0976 8.68342 11.0976 8.29289 10.7071L6.29289 8.70711C5.90237 8.31658 5.90237 7.68342 6.29289 7.29289C6.68342 6.90237 7.31658 6.90237 7.70711 7.29289L9 8.58579L12.2929 5.29289C12.6834 4.90237 13.3166 4.90237 13.7071 5.29289Z" fill="#9BA1A8"/>
<path fill-rule="evenodd" clip-rule="evenodd" d="M0 3C0 1.34315 1.34315 0 3 0H17C18.6569 0 20 1.34315 20 3V19C20 20.6569 18.6569 22 17 22H3C1.34315 22 0 20.6569 0 19V3ZM2 16V19C2 19.5523 2.44772 20 3 20H17C17.5523 20 18 19.5523 18 19V16H2ZM18 14H2V3C2 2.44772 2.44772 2 3 2H17C17.5523 2 18 2.44772 18 3V14Z" fill="#9BA1A8"/>
</svg>
