<svg width="22" height="18" viewBox="0 0 22 18" fill="none" xmlns="http://www.w3.org/2000/svg">
<path fill-rule="evenodd" clip-rule="evenodd" d="M0 15C0 15.7956 0.316071 16.5587 0.87868 17.1213C1.44129 17.6839 2.20435 18 3 18H19C19.7957 18 20.5587 17.6839 21.1213 17.1213C21.6839 16.5587 22 15.7956 22 15V3C22 2.20435 21.6839 1.44129 21.1213 0.878678C20.5587 0.31607 19.7957 0 19 0H3C1.34315 0 0 1.34315 0 3V15ZM20 5.5V3C20 2.73478 19.8946 2.48043 19.7071 2.29289C19.5196 2.10536 19.2652 2 19 2L3 2C2.44772 2 2 2.44771 2 3L2 15C2 15.2652 2.10536 15.5196 2.29289 15.7071C2.48043 15.8946 2.73478 16 3 16L19 16C19.2652 16 19.5196 15.8946 19.7071 15.7071C19.8946 15.5196 20 15.2652 20 15V13H14.75C12.6789 13 11 11.3211 11 9.25C11 7.17893 12.6789 5.5 14.75 5.5H20ZM20 11V7.5H14.75C13.7835 7.5 13 8.2835 13 9.25C13 10.2165 13.7835 11 14.75 11H20Z" fill="#242D35"/>
</svg>
