<svg width="24" height="24" viewBox="0 0 24 24" fill="none" xmlns="http://www.w3.org/2000/svg">
<path fill-rule="evenodd" clip-rule="evenodd" d="M23 12C23 18.0751 18.0751 23 12 23C5.92487 23 1 18.0751 1 12C1 5.92487 5.92487 1 12 1C18.0751 1 23 5.92487 23 12ZM11.9999 14C12.7363 14 13.3333 13.5758 13.3333 13.0526L13.9999 6.49998C13.9999 5.55262 13.3333 4.99998 11.9999 4.99998C10.6666 4.99998 9.99994 5.55262 9.99994 6.49998L10.6666 13.0526C10.6666 13.5758 11.2636 14 11.9999 14ZM11.99 19C10.8909 19 9.99994 18.1046 9.99994 17C9.99994 15.8954 10.8909 15 11.99 15H12.0099C13.109 15 13.9999 15.8954 13.9999 17C13.9999 18.1046 13.109 19 12.0099 19H11.99Z" fill="#242D35"/>
</svg>
